<svg width="20" height="21" viewBox="0 0 20 21" fill="none" xmlns="http://www.w3.org/2000/svg">
<g clip-path="url(#clip0_2_135)">
<path d="M4.18677 14.7714L4.18661 14.7712C2.91239 13.2541 2.05191 11.8303 1.48115 10.2947C1.10877 9.30142 0.962184 8.47213 1.02531 7.68678L1.02534 7.68636C1.07922 7.04976 1.33896 6.49878 1.79569 6.04617L3.00583 4.84696L3.00753 4.84528L3.00755 4.8453C3.36919 4.50367 3.78784 4.32114 4.22812 4.32114C4.67116 4.32114 5.08627 4.50322 5.43554 4.84224C5.65751 5.04581 5.88197 5.27164 6.09524 5.48932L6.02381 5.5593M4.18677 14.7714L15.0697 19.0356C15.2431 18.828 15.4389 18.6398 15.6439 18.4428C15.6606 18.4267 15.6774 18.4105 15.6943 18.3943C15.8465 18.2501 16.0017 18.0993 16.1505 17.9455L16.2224 18.0151C16.2224 18.0151 16.2224 18.015 16.2224 18.015C16.5819 17.6438 16.7675 17.2157 16.7667 16.7843C16.7658 16.3525 16.5783 15.9296 16.2145 15.5691L14.2707 13.6429C13.9249 13.2869 13.5056 13.0937 13.0608 13.0937C12.6159 13.0937 12.1937 13.2869 11.8385 13.6389L10.7336 14.7338C10.6497 14.6882 10.5656 14.6464 10.4869 14.6073L10.4749 14.6013L10.4748 14.6013C10.3454 14.5372 10.2298 14.4782 10.1279 14.4138L10.1278 14.4137C9.08346 13.7567 8.13382 12.8987 7.22413 11.7934C6.78578 11.2436 6.48777 10.7813 6.27733 10.3174C6.56359 10.0575 6.83274 9.78771 7.09168 9.52514L7.09206 9.52475C7.18835 9.42603 7.28807 9.3272 7.38852 9.22766C7.75255 8.86693 7.95519 8.44187 7.95519 8.00245C7.95519 7.56347 7.75596 7.13798 7.38836 6.77709C7.3883 6.77703 7.38824 6.77697 7.38818 6.77691L6.42419 5.82162C6.32303 5.72138 6.22701 5.62356 6.12853 5.52323C6.11744 5.51193 6.10633 5.50061 6.09517 5.48924L6.02381 5.5593M4.18677 14.7714C5.73591 16.6066 7.6011 18.0518 9.72989 19.0744L9.73068 19.0748C10.5388 19.4542 11.6304 19.91 12.8504 19.9883L12.8504 19.9883L12.8523 19.9884C12.9266 19.9917 12.9998 19.9948 13.0767 19.9948C13.908 19.9948 14.5816 19.7092 15.1283 19.1217C15.1315 19.1186 15.1418 19.1082 15.1512 19.094M4.18677 14.7714L15.1512 19.094M6.02381 5.5593C6.03497 5.57066 6.04609 5.58199 6.05718 5.59329C6.1556 5.69356 6.25211 5.79189 6.3538 5.89265L7.31813 6.84827L3.07622 4.91799C3.42237 4.59099 3.81731 4.42114 4.22812 4.42114C4.64227 4.42114 5.03356 4.59099 5.3669 4.91497C5.58709 5.11685 5.81033 5.3414 6.02381 5.5593ZM15.1512 19.094C15.3198 18.8931 15.5101 18.7101 15.714 18.514C15.7304 18.4983 15.7468 18.4825 15.7633 18.4666L15.1512 19.094ZM15.5848 16.2044C15.973 16.5891 15.9697 17.0059 15.575 17.4133M15.5848 16.2044L13.6339 14.2741L15.575 17.4133M15.5848 16.2044L15.5145 16.2755L15.5144 16.2754M15.5848 16.2044L15.5144 16.2754M15.575 17.4133C15.439 17.5575 15.2969 17.6956 15.1447 17.8397L15.575 17.4133ZM15.5144 16.2754C15.6959 16.4553 15.7749 16.6313 15.7735 16.7995C15.7721 16.9687 15.6895 17.1514 15.5032 17.3437L15.5023 17.3447C15.3682 17.4868 15.2277 17.6234 15.076 17.7671L15.0754 17.7676C15.0646 17.778 15.0538 17.7884 15.043 17.7988C14.8274 18.006 14.6005 18.2241 14.3938 18.469C14.0422 18.844 13.6262 19.019 13.0806 19.019C13.0308 19.019 12.9775 19.0161 12.9235 19.0131L12.9186 19.0129C12.9185 19.0129 12.9183 19.0129 12.9182 19.0129C11.8771 18.9466 10.9048 18.5435 10.1663 18.1952C8.1668 17.2364 6.41147 15.8763 4.95485 14.149C3.75384 12.7161 2.94828 11.3858 2.41599 9.96209L2.41586 9.96173C2.08549 9.08823 1.96374 8.39535 2.0139 7.77043C2.0506 7.36751 2.20534 7.03368 2.49911 6.74284L2.49915 6.74281L3.70226 5.55057C3.87606 5.38445 4.05931 5.30631 4.22781 5.30631C4.39183 5.30631 4.56834 5.38345 4.73935 5.55571L4.73927 5.55579L4.74273 5.55896C4.92797 5.72885 5.1035 5.90559 5.2902 6.09357C5.31981 6.12339 5.34971 6.15349 5.37996 6.18389C5.4349 6.23984 5.48764 6.2929 5.54048 6.34607C5.59787 6.40382 5.6554 6.4617 5.71604 6.52357L5.71603 6.52358L5.71707 6.52461L6.6814 7.48023C6.87155 7.66865 6.95585 7.84651 6.95585 8.0088C6.95585 8.17109 6.87155 8.34895 6.6814 8.53738C6.63099 8.58734 6.58062 8.63801 6.53056 8.68837L6.53036 8.68857C6.48015 8.73908 6.43025 8.78928 6.38039 8.83869L6.38003 8.83905C6.35661 8.86249 6.33332 8.88583 6.31015 8.90904C6.03475 9.18497 5.77543 9.44477 5.49183 9.69379L5.49171 9.69365L5.48742 9.6979L5.47934 9.70591L5.47558 9.70963L5.47458 9.71063L5.47353 9.71167L5.47242 9.71276L5.47126 9.71392C5.32263 9.8612 5.25445 10.0112 5.23647 10.1563C5.21882 10.2988 5.2509 10.427 5.28527 10.5287L5.28553 10.5295C5.28806 10.5367 5.29047 10.5427 5.29204 10.5467L5.29529 10.5551L5.2951 10.5552L5.29757 10.5611C5.55118 11.1649 5.9028 11.7371 6.44751 12.4158L6.44751 12.4158L6.44811 12.4166C7.42463 13.6098 8.45468 14.5376 9.59079 15.2528M15.5144 16.2754L13.5635 14.3452L13.5609 14.3426L13.561 14.3426C13.4419 14.2158 13.2659 14.0888 13.0611 14.0888C12.8951 14.0888 12.715 14.1713 12.5396 14.3452L11.3294 15.5444L11.3292 15.5446C11.2723 15.6007 11.0789 15.7912 10.7769 15.7912C10.656 15.7912 10.5369 15.761 10.4176 15.7003M10.4176 15.7003C10.4177 15.7003 10.4178 15.7003 10.4178 15.7003L10.463 15.6112L10.4176 15.7003ZM10.4176 15.7003C10.4093 15.696 10.4021 15.6919 10.3968 15.689L10.3959 15.6884C10.3901 15.6852 10.3866 15.6832 10.383 15.6814L10.3737 15.6768L10.374 15.6764C10.2721 15.612 10.1565 15.553 10.0271 15.4889L10.0261 15.4884C10.0025 15.4764 9.97832 15.4643 9.95368 15.4519C9.83688 15.3933 9.71013 15.3297 9.59079 15.2528M9.59079 15.2528C9.59093 15.2529 9.59107 15.2529 9.59122 15.253L9.64449 15.1684L9.59026 15.2524C9.59044 15.2525 9.59061 15.2526 9.59079 15.2528Z" fill="#EC6426" stroke="#EC6426" stroke-width="0.2"/>
<path d="M17.9918 7.73041L17.9918 7.73031C18.0365 7.2153 18.0039 6.69741 17.8951 6.19151M17.9918 7.73041L11.8722 2.32435L11.9945 2.29825C11.9945 2.29821 11.9945 2.29818 11.9945 2.29814C11.9779 2.22059 11.9966 2.13992 12.0466 2.07648L11.9484 1.99914L12.0465 2.07659C12.0967 2.01303 12.1677 1.97621 12.2492 1.97193L12.2493 1.97192C14.9223 1.83006 17.3482 3.6472 17.8951 6.19151M17.9918 7.73041C17.9848 7.81215 17.9443 7.88255 17.8752 7.93125L17.9918 7.73041ZM17.8951 6.19151L18.0173 6.16524L17.8951 6.19151C17.8951 6.19151 17.8951 6.19151 17.8951 6.19151ZM17.6437 7.97548L17.6437 7.97547L17.8752 7.93127C17.8072 7.97918 17.7259 7.99491 17.6437 7.97548ZM18.4593 8.73096L18.4594 8.7309L17.4386 8.81037L17.4097 8.93197C17.4097 8.93197 17.4097 8.93197 17.4097 8.93197C17.5095 8.95573 17.6104 8.96707 17.7107 8.96707C17.9768 8.96707 18.2388 8.88597 18.4593 8.73096ZM18.8762 5.9884C18.5588 4.51204 17.6993 3.19304 16.4573 2.27406L18.9908 7.8138C19.0439 7.2026 19.0052 6.58842 18.8762 5.9884Z" fill="#EC6426" stroke="#EC6426" stroke-width="0.25"/>
<path d="M14.3643 10.0435L14.3642 10.0434C14.083 9.97715 13.9052 9.69876 13.9747 9.41779C14.0439 9.1381 14.3298 8.97027 14.6101 9.03635C14.6101 9.03635 14.6101 9.03635 14.6101 9.03635L14.5815 9.15802C14.6281 9.16902 14.6635 9.1533 14.6848 9.13821L14.3643 10.0435ZM14.3643 10.0435C14.446 10.0626 14.529 10.0722 14.6117 10.0722C14.8304 10.0722 15.0462 10.0058 15.2272 9.87803L15.1551 9.77592M14.3643 10.0435L14.7382 9.0455L14.6137 9.03475C14.6422 8.7039 14.6214 8.37159 14.5516 8.04684L14.5516 8.04681C14.2011 6.41421 12.6458 5.24639 10.9301 5.3361C10.9901 5.61868 10.804 5.89066 10.5214 5.9486M10.5214 5.9486L10.4963 5.82615L10.5215 5.9486C10.5215 5.9486 10.5215 5.9486 10.5214 5.9486ZM10.5214 5.9486C10.2394 6.00652 9.95836 5.83038 9.89772 5.54852L9.89772 5.5485C9.8338 5.25116 9.90636 4.94268 10.0952 4.70259L10.0952 4.70258C10.2828 4.46399 10.5655 4.31841 10.8709 4.30239M10.8709 4.30239C10.8709 4.30239 10.8709 4.30239 10.8709 4.30239L10.8774 4.42722M10.8709 4.30239C10.8708 4.30239 10.8708 4.30239 10.8708 4.3024L10.8774 4.42722M10.8709 4.30239C13.0982 4.18393 15.1252 5.699 15.5834 7.83338C15.6745 8.25729 15.7017 8.69126 15.6643 9.12293L15.6643 9.12298C15.6378 9.42611 15.4782 9.70133 15.227 9.87814L15.1551 9.77592M10.8774 4.42722C13.0457 4.31187 15.0163 5.7875 15.4612 7.85965C15.5497 8.27138 15.5761 8.69286 15.5397 9.11213C15.5166 9.37802 15.3765 9.62003 15.1551 9.77592M10.8774 4.42722L14.3928 9.92176C14.4653 9.93873 14.5386 9.94721 14.6117 9.94721C14.8052 9.94721 14.9957 9.88844 15.1551 9.77592M10.9309 5.33436L10.9308 5.33445L10.93 5.33504L10.9299 5.3351C10.9299 5.33505 10.9299 5.335 10.9299 5.33496C10.9298 5.33487 10.9298 5.33479 10.9298 5.3347L10.9302 5.33523L10.9302 5.33523L10.9309 5.33436ZM10.9309 5.33436L10.9309 5.33436L10.9309 5.33436L10.9309 5.33436Z" fill="#EC6426" stroke="#EC6426" stroke-width="0.25"/>
<path d="M11.3673 12.253L11.3673 12.253C11.2276 12.209 11.1246 12.099 11.0647 11.9714C11.0045 11.8431 10.9829 11.6878 11.0114 11.5341C11.0114 11.5341 11.0114 11.5341 11.0114 11.5341L11.1343 11.5568C11.1745 11.3391 11.323 11.1926 11.4873 11.1907L11.3673 12.253ZM11.3673 12.253C11.4302 12.2728 11.4948 12.2829 11.5592 12.2829M11.3673 12.253L11.5592 12.2829M11.5592 12.2829C11.7309 12.2829 11.8949 12.2128 12.0279 12.087C12.2106 11.9151 12.3199 11.6562 12.3378 11.3801M11.5592 12.2829L12.3378 11.3801M12.3378 11.3801C12.3595 11.0461 12.3438 10.71 12.2909 10.3816L12.3378 11.3801ZM11.3263 10.6175C11.3511 10.7716 11.3637 10.9284 11.364 11.0854L9.37019 9.2625C9.37022 9.26249 9.37024 9.26248 9.37027 9.26247C9.5689 9.2081 9.69707 9.02441 9.73889 8.82179C10.4802 8.87659 11.1612 9.59099 11.3263 10.6175L11.3263 10.6175ZM12.2909 10.3815C12.0268 8.73908 10.8451 7.52196 9.49894 7.61696L12.2909 10.3815Z" fill="#EC6426" stroke="#EC6426" stroke-width="0.25"/>
</g>
<defs>
<clipPath id="clip0_2_135">
<rect width="20" height="21" fill="white"/>
</clipPath>
</defs>
</svg>
