<svg width="27" height="27" viewBox="0 0 27 27" fill="none" xmlns="http://www.w3.org/2000/svg">
<path d="M23.8692 0.39209C24.6458 0.39209 25.3905 0.700567 25.9396 1.24966C26.4887 1.79875 26.7972 2.54348 26.7972 3.32002V23.8155C26.7972 24.5921 26.4887 25.3368 25.9396 25.8859C25.3905 26.435 24.6458 26.7435 23.8692 26.7435H3.37373C2.5972 26.7435 1.85246 26.435 1.30337 25.8859C0.754278 25.3368 0.445801 24.5921 0.445801 23.8155V3.32002C0.445801 2.54348 0.754278 1.79875 1.30337 1.24966C1.85246 0.700567 2.5972 0.39209 3.37373 0.39209H23.8692ZM23.1373 23.0835V15.3245C23.1373 14.0588 22.6344 12.8449 21.7394 11.9498C20.8444 11.0548 19.6305 10.552 18.3647 10.552C17.1204 10.552 15.671 11.3133 14.9683 12.4552V10.8302H10.8839V23.0835H14.9683V15.8662C14.9683 14.7389 15.876 13.8166 17.0032 13.8166C17.5468 13.8166 18.0681 14.0326 18.4525 14.4169C18.8369 14.8013 19.0528 15.3226 19.0528 15.8662V23.0835H23.1373ZM6.12598 8.53173C6.77827 8.53173 7.40385 8.27261 7.86509 7.81138C8.32632 7.35014 8.58545 6.72456 8.58545 6.07227C8.58545 4.71079 7.48747 3.59817 6.12598 3.59817C5.46981 3.59817 4.84051 3.85884 4.37653 4.32282C3.91255 4.7868 3.65188 5.4161 3.65188 6.07227C3.65188 7.43376 4.7645 8.53173 6.12598 8.53173ZM8.1609 23.0835V10.8302H4.10571V23.0835H8.1609Z" fill="white"/>
</svg>
