<svg width="18" height="26" viewBox="0 0 18 26" fill="none" xmlns="http://www.w3.org/2000/svg">
<path d="M9.00061 1C4.58873 1 1 4.97417 1 9.85992C1 11.468 1.65142 13.198 1.67849 13.271C1.88872 13.8238 2.30411 14.6829 2.60317 15.1865L8.08862 24.3907C8.31323 24.7678 8.64529 24.9842 9.00019 24.9842C9.35508 24.9842 9.68714 24.7678 9.91175 24.3911L15.3976 15.1865C15.6975 14.6829 16.1121 13.8243 16.3223 13.271C16.3498 13.1984 17.0004 11.469 17.0004 9.85992C17.0008 4.97417 13.4121 1 9.00061 1ZM15.4547 12.8663C15.2669 13.3619 14.8807 14.1611 14.6117 14.6122L9.12582 23.8168C9.01753 23.9986 8.98327 23.9986 8.87498 23.8168L3.3891 14.6122C3.1205 14.1611 2.73387 13.3614 2.54606 12.8658C2.53803 12.8443 1.94075 11.2526 1.94075 9.85992C1.94075 5.54941 5.10732 2.04273 8.99976 2.04273C12.8922 2.04273 16.0588 5.54941 16.0588 9.85992C16.0596 11.2544 15.4611 12.8504 15.4547 12.8663Z" fill="#EC6426" stroke="#EC6426" stroke-width="0.3"/>
<path d="M9.00059 5.16992C6.66479 5.16992 4.76468 7.27412 4.76468 9.86033C4.76468 12.4465 6.66437 14.5507 9.00017 14.5507C11.336 14.5507 13.2357 12.4461 13.2357 9.86033C13.2361 7.27412 11.336 5.16992 9.00059 5.16992ZM9.00059 13.5085C7.18466 13.5085 5.70628 11.8722 5.70628 9.86033C5.70628 7.84841 7.18466 6.21218 9.00059 6.21218C10.8165 6.21218 12.2949 7.84841 12.2949 9.86033C12.2949 11.8722 10.8165 13.5085 9.00059 13.5085Z" fill="#EC6426" stroke="#EC6426" stroke-width="0.3"/>
</svg>
