<svg width="19" height="13" viewBox="0 0 19 13" fill="none" xmlns="http://www.w3.org/2000/svg">
<g clip-path="url(#clip0_2_116)">
<path d="M8.22517 8.87263L8.22824 8.87614C8.23172 8.88007 8.23673 8.8856 8.24322 8.8925C8.25622 8.90629 8.27522 8.92559 8.30004 8.94858C8.34965 8.99452 8.4228 9.05542 8.51804 9.11652C8.7083 9.23856 8.98822 9.36224 9.34492 9.36706C9.48612 9.37837 9.62881 9.37426 9.76893 9.35472C9.96887 9.33741 10.1259 9.30204 10.2618 9.24396C10.3974 9.18602 10.5082 9.10705 10.6179 9.00703C10.6194 9.00583 10.6204 9.00495 10.6208 9.00461L10.6209 9.00435L10.6209 9.0045L10.621 9.00443C10.6732 8.96457 10.724 8.9217 10.7723 8.87442C10.7723 8.8744 10.7723 8.87439 10.7723 8.87438L12.3114 7.37214L16.8895 11.8416H2.11053L6.68823 7.3725L8.22517 8.87263Z" stroke="#EC6426" stroke-width="0.15"/>
<path d="M1.18828 2.00202L5.79526 6.5L1.18828 10.9976V2.00202Z" stroke="#EC6426" stroke-width="0.15"/>
<path d="M17.8117 10.9975L13.2044 6.49988L17.8117 2.00229V10.9975Z" stroke="#EC6426" stroke-width="0.15"/>
<mask id="path-4-inside-1_2_116" fill="white">
<path d="M9.76051 9.28027C9.64176 9.29039 9.50631 9.29436 9.34822 9.29219C9.48553 9.30303 9.62431 9.29942 9.76051 9.28027Z"/>
</mask>
<path d="M9.76051 9.28027C9.64176 9.29039 9.50631 9.29436 9.34822 9.29219C9.48553 9.30303 9.62431 9.29942 9.76051 9.28027Z" fill="#EC6426"/>
<path d="M9.76051 9.28027L9.78139 9.42881L9.74778 9.13081L9.76051 9.28027ZM9.34822 9.29219L9.35028 9.14221L9.33642 9.44173L9.34822 9.29219ZM9.74778 9.13081C9.63517 9.14041 9.50484 9.14433 9.35028 9.14221L9.34617 9.44218C9.50777 9.4444 9.64834 9.44037 9.77324 9.42973L9.74778 9.13081ZM9.33642 9.44173C9.48416 9.45339 9.63392 9.44954 9.78139 9.42881L9.73962 9.13173C9.61471 9.14929 9.48689 9.15267 9.36002 9.14266L9.33642 9.44173Z" fill="#EC6426" mask="url(#path-4-inside-1_2_116)"/>
<mask id="path-6-inside-2_2_116" fill="white">
<path d="M17.817 1.89307C17.8157 1.89433 17.8143 1.8956 17.8125 1.89729L17.817 1.89307Z"/>
</mask>
<path d="M17.817 1.89307C17.8157 1.89433 17.8143 1.8956 17.8125 1.89729L17.817 1.89307Z" fill="#EC6426"/>
<path d="M17.817 1.89307L17.9195 2.00256L17.7145 1.78357L17.817 1.89307ZM17.8125 1.89729L17.71 1.7878L17.915 2.00679L17.8125 1.89729ZM17.7145 1.78357C17.7138 1.7842 17.7131 1.78483 17.7124 1.78552C17.7117 1.78621 17.7109 1.78695 17.71 1.7878L17.915 2.00679C17.9159 2.00595 17.9167 2.00521 17.9174 2.00452C17.9182 2.00383 17.9189 2.0032 17.9195 2.00256L17.7145 1.78357ZM17.915 2.00679L17.9195 2.00256L17.7145 1.78357L17.71 1.78779L17.915 2.00679Z" fill="#EC6426" mask="url(#path-6-inside-2_2_116)"/>
<path d="M17.8343 11.2293L17.9617 11.3537V11.1757V1.82433V1.6467L17.8344 1.77058L17.822 1.78263L17.1287 1.03243L17.1065 1.00833H17.0737H1.92635H1.89731L1.87584 1.02789L1.06278 1.76853L1.03828 1.79084V1.82397V11.1757V11.3537L1.16567 11.2293L5.90262 6.60482L6.58123 7.26736L1.87395 11.863L1.74216 11.9917H1.92635H17.0737H17.2578L17.126 11.863L12.4159 7.26451C12.6321 7.05399 12.86 6.83198 13.0951 6.60294L17.8343 11.2293ZM1.66992 0.075H17.3301C18.2092 0.075 18.925 0.770732 18.925 1.625V11.375C18.925 12.2289 18.2095 12.925 17.3301 12.925H1.66992C0.790824 12.925 0.075 12.2293 0.075 11.375V1.625C0.075 0.771071 0.790475 0.075 1.66992 0.075Z" fill="#EC6426" stroke="#EC6426" stroke-width="0.15"/>
<mask id="path-9-inside-3_2_116" fill="white">
<path d="M17.8036 1.90552C17.8001 1.9089 17.7963 1.91304 17.7917 1.91755L17.8036 1.90552Z"/>
</mask>
<path d="M17.8036 1.90552C17.8001 1.9089 17.7963 1.91304 17.7917 1.91755L17.8036 1.90552Z" fill="#EC6426"/>
<path d="M17.8036 1.90552L17.9104 2.01083L17.6984 1.79852L17.8036 1.90552ZM17.7917 1.91755L17.6849 1.81224L17.8968 2.02454L17.7917 1.91755ZM17.6984 1.79852C17.6952 1.80176 17.6919 1.80515 17.6904 1.80665C17.6885 1.80864 17.6875 1.80967 17.6866 1.81056L17.8968 2.02454C17.9005 2.02092 17.9037 2.01762 17.9057 2.01557C17.9069 2.01441 17.9075 2.01376 17.9081 2.01314C17.9086 2.01257 17.9088 2.01243 17.9087 2.01251L17.6984 1.79852ZM17.8985 2.02286L17.9104 2.01083L17.6968 1.80021L17.6849 1.81224L17.8985 2.02286Z" fill="#EC6426" mask="url(#path-9-inside-3_2_116)"/>
<mask id="path-11-inside-4_2_116" fill="white">
<path d="M17.8139 1.89648L17.8036 1.90621C17.8077 1.90232 17.811 1.89882 17.8139 1.89648Z"/>
</mask>
<path d="M17.8139 1.89648L17.8036 1.90621C17.8077 1.90232 17.811 1.89882 17.8139 1.89648Z" fill="#EC6426"/>
<path d="M17.8139 1.89648L17.9167 2.00574L17.7198 1.77971L17.8139 1.89648ZM17.7112 1.78723L17.7008 1.79695L17.9064 2.01547L17.9167 2.00574L17.7112 1.78723ZM17.9064 2.01547C17.9083 2.01367 17.91 2.01206 17.9112 2.01088C17.9129 2.00916 17.9127 2.00936 17.9136 2.00848C17.9141 2.00802 17.9138 2.00833 17.9131 2.00898C17.9124 2.00961 17.9106 2.01121 17.9081 2.01326L17.7198 1.77971C17.7158 1.78293 17.7125 1.78584 17.7103 1.7879C17.708 1.78998 17.7061 1.79186 17.7048 1.79305C17.704 1.79382 17.702 1.79577 17.7019 1.79587C17.7013 1.79652 17.701 1.79681 17.7008 1.79695L17.9064 2.01547Z" fill="#EC6426" mask="url(#path-11-inside-4_2_116)"/>
<mask id="path-13-inside-5_2_116" fill="white">
<path d="M17.82 1.89014L17.8162 1.89366C17.8186 1.89146 17.82 1.89014 17.82 1.89014Z"/>
</mask>
<path d="M17.82 1.89014L17.8162 1.89366C17.8186 1.89146 17.82 1.89014 17.82 1.89014Z" fill="#EC6426"/>
<path d="M17.82 1.89014L17.9225 1.99967L17.7175 1.7806L17.82 1.89014ZM17.8162 1.89366L17.7137 1.78412L17.9187 2.00321L17.8162 1.89366ZM17.7175 1.7806L17.7137 1.78412L17.9187 2.00321L17.9225 1.99968L17.7175 1.7806ZM17.9187 2.00321C17.9199 2.00211 17.9208 2.00122 17.9215 2.00061C17.9218 2.00031 17.922 2.00007 17.9222 1.99991C17.9223 1.99983 17.9224 1.99977 17.9224 1.99973C17.9224 1.99971 17.9224 1.99969 17.9224 1.99968C17.9225 1.99968 17.9225 1.99967 17.9225 1.99967C17.9225 1.99967 17.9225 1.99967 17.9225 1.99967C17.9225 1.99967 17.9225 1.99967 17.9225 1.99967C17.9225 1.99967 17.9225 1.99967 17.9225 1.99967C17.9225 1.99967 17.9225 1.99967 17.9225 1.99967C17.9225 1.99967 17.9225 1.99967 17.82 1.89014C17.7175 1.78061 17.7175 1.78061 17.7175 1.78061C17.7175 1.78061 17.7175 1.78061 17.7175 1.78061C17.7175 1.78061 17.7175 1.78061 17.7175 1.78061C17.7175 1.78061 17.7175 1.78061 17.7175 1.78061C17.7175 1.78061 17.7175 1.78061 17.7175 1.78061C17.7175 1.78061 17.7175 1.78062 17.7175 1.78062C17.7175 1.78063 17.7175 1.78065 17.7174 1.78067C17.7174 1.78071 17.7173 1.78077 17.7172 1.78084C17.7171 1.781 17.7168 1.78123 17.7165 1.78154C17.7159 1.78214 17.7149 1.78302 17.7137 1.78412L17.9187 2.00321Z" fill="#EC6426" mask="url(#path-13-inside-5_2_116)"/>
<mask id="path-15-inside-6_2_116" fill="white">
<path d="M9.34711 9.29218C9.34748 9.29218 9.34785 9.29218 9.34822 9.29218C8.95338 9.2604 8.5693 9.10332 8.27984 8.82129C8.28021 8.82093 8.66764 9.28316 9.34711 9.29218Z"/>
</mask>
<path d="M9.34711 9.29218C9.34748 9.29218 9.34785 9.29218 9.34822 9.29218C8.95338 9.2604 8.5693 9.10332 8.27984 8.82129C8.28021 8.82093 8.66764 9.28316 9.34711 9.29218Z" fill="#EC6426"/>
<path d="M9.34711 9.29218L9.34512 9.44218H9.34711V9.29218ZM9.34822 9.29218V9.44218L9.36026 9.14267L9.34822 9.29218ZM8.27984 8.82129L8.17523 8.71379L8.06483 8.82122L8.17516 8.92872L8.27984 8.82129ZM9.34711 9.44218C9.34711 9.44218 9.34711 9.44218 9.34711 9.44218C9.34711 9.44218 9.34711 9.44218 9.34711 9.44218C9.34711 9.44218 9.34712 9.44218 9.34712 9.44218C9.34712 9.44218 9.34712 9.44218 9.34712 9.44218C9.34712 9.44218 9.34712 9.44218 9.34712 9.44218C9.34712 9.44218 9.34712 9.44218 9.34712 9.44218C9.34712 9.44218 9.34712 9.44218 9.34712 9.44218C9.34713 9.44218 9.34713 9.44218 9.34713 9.44218C9.34713 9.44218 9.34713 9.44218 9.34713 9.44218C9.34713 9.44218 9.34713 9.44218 9.34713 9.44218C9.34713 9.44218 9.34713 9.44218 9.34713 9.44218C9.34713 9.44218 9.34713 9.44218 9.34714 9.44218C9.34714 9.44218 9.34714 9.44218 9.34714 9.44218C9.34714 9.44218 9.34714 9.44218 9.34714 9.44218C9.34714 9.44218 9.34714 9.44218 9.34714 9.44218C9.34714 9.44218 9.34714 9.44218 9.34714 9.44218C9.34715 9.44218 9.34715 9.44218 9.34715 9.44218C9.34715 9.44218 9.34715 9.44218 9.34715 9.44218C9.34715 9.44218 9.34715 9.44218 9.34715 9.44218C9.34715 9.44218 9.34715 9.44218 9.34715 9.44218C9.34715 9.44218 9.34715 9.44218 9.34716 9.44218C9.34716 9.44218 9.34716 9.44218 9.34716 9.44218C9.34716 9.44218 9.34716 9.44218 9.34716 9.44218C9.34716 9.44218 9.34716 9.44218 9.34716 9.44218C9.34716 9.44218 9.34716 9.44218 9.34716 9.44218C9.34716 9.44218 9.34717 9.44218 9.34717 9.44218C9.34717 9.44218 9.34717 9.44218 9.34717 9.44218C9.34717 9.44218 9.34717 9.44218 9.34717 9.44218C9.34717 9.44218 9.34717 9.44218 9.34717 9.44218C9.34717 9.44218 9.34717 9.44218 9.34717 9.44218C9.34718 9.44218 9.34718 9.44218 9.34718 9.44218C9.34718 9.44218 9.34718 9.44218 9.34718 9.44218C9.34718 9.44218 9.34718 9.44218 9.34718 9.44218C9.34718 9.44218 9.34718 9.44218 9.34718 9.44218C9.34718 9.44218 9.34718 9.44218 9.34719 9.44218C9.34719 9.44218 9.34719 9.44218 9.34719 9.44218C9.34719 9.44218 9.34719 9.44218 9.34719 9.44218C9.34719 9.44218 9.34719 9.44218 9.34719 9.44218C9.34719 9.44218 9.34719 9.44218 9.34719 9.44218C9.3472 9.44218 9.3472 9.44218 9.3472 9.44218C9.3472 9.44218 9.3472 9.44218 9.3472 9.44218C9.3472 9.44218 9.3472 9.44218 9.3472 9.44218C9.3472 9.44218 9.3472 9.44218 9.3472 9.44218C9.3472 9.44218 9.3472 9.44218 9.34721 9.44218C9.34721 9.44218 9.34721 9.44218 9.34721 9.44218C9.34721 9.44218 9.34721 9.44218 9.34721 9.44218C9.34721 9.44218 9.34721 9.44218 9.34721 9.44218C9.34721 9.44218 9.34721 9.44218 9.34721 9.44218C9.34721 9.44218 9.34722 9.44218 9.34722 9.44218C9.34722 9.44218 9.34722 9.44218 9.34722 9.44218C9.34722 9.44218 9.34722 9.44218 9.34722 9.44218C9.34722 9.44218 9.34722 9.44218 9.34722 9.44218C9.34722 9.44218 9.34722 9.44218 9.34722 9.44218C9.34723 9.44218 9.34723 9.44218 9.34723 9.44218C9.34723 9.44218 9.34723 9.44218 9.34723 9.44218C9.34723 9.44218 9.34723 9.44218 9.34723 9.44218C9.34723 9.44218 9.34723 9.44218 9.34723 9.44218C9.34723 9.44218 9.34723 9.44218 9.34724 9.44218C9.34724 9.44218 9.34724 9.44218 9.34724 9.44218C9.34724 9.44218 9.34724 9.44218 9.34724 9.44218C9.34724 9.44218 9.34724 9.44218 9.34724 9.44218C9.34724 9.44218 9.34724 9.44218 9.34724 9.44218C9.34725 9.44218 9.34725 9.44218 9.34725 9.44218C9.34725 9.44218 9.34725 9.44218 9.34725 9.44218C9.34725 9.44218 9.34725 9.44218 9.34725 9.44218C9.34725 9.44218 9.34725 9.44218 9.34725 9.44218C9.34725 9.44218 9.34725 9.44218 9.34726 9.44218C9.34726 9.44218 9.34726 9.44218 9.34726 9.44218C9.34726 9.44218 9.34726 9.44218 9.34726 9.44218C9.34726 9.44218 9.34726 9.44218 9.34726 9.44218C9.34726 9.44218 9.34726 9.44218 9.34726 9.44218C9.34726 9.44218 9.34727 9.44218 9.34727 9.44218C9.34727 9.44218 9.34727 9.44218 9.34727 9.44218C9.34727 9.44218 9.34727 9.44218 9.34727 9.44218C9.34727 9.44218 9.34727 9.44218 9.34727 9.44218C9.34727 9.44218 9.34727 9.44218 9.34727 9.44218C9.34728 9.44218 9.34728 9.44218 9.34728 9.44218C9.34728 9.44218 9.34728 9.44218 9.34728 9.44218C9.34728 9.44218 9.34728 9.44218 9.34728 9.44218C9.34728 9.44218 9.34728 9.44218 9.34728 9.44218C9.34728 9.44218 9.34728 9.44218 9.34729 9.44218C9.34729 9.44218 9.34729 9.44218 9.34729 9.44218C9.34729 9.44218 9.34729 9.44218 9.34729 9.44218C9.34729 9.44218 9.34729 9.44218 9.34729 9.44218C9.34729 9.44218 9.34729 9.44218 9.34729 9.44218C9.3473 9.44218 9.3473 9.44218 9.3473 9.44218C9.3473 9.44218 9.3473 9.44218 9.3473 9.44218C9.3473 9.44218 9.3473 9.44218 9.3473 9.44218C9.3473 9.44218 9.3473 9.44218 9.3473 9.44218C9.3473 9.44218 9.3473 9.44218 9.34731 9.44218C9.34731 9.44218 9.34731 9.44218 9.34731 9.44218C9.34731 9.44218 9.34731 9.44218 9.34731 9.44218C9.34731 9.44218 9.34731 9.44218 9.34731 9.44218C9.34731 9.44218 9.34731 9.44218 9.34731 9.44218C9.34731 9.44218 9.34732 9.44218 9.34732 9.44218C9.34732 9.44218 9.34732 9.44218 9.34732 9.44218C9.34732 9.44218 9.34732 9.44218 9.34732 9.44218C9.34732 9.44218 9.34732 9.44218 9.34732 9.44218C9.34732 9.44218 9.34732 9.44218 9.34732 9.44218C9.34733 9.44218 9.34733 9.44218 9.34733 9.44218C9.34733 9.44218 9.34733 9.44218 9.34733 9.44218C9.34733 9.44218 9.34733 9.44218 9.34733 9.44218C9.34733 9.44218 9.34733 9.44218 9.34733 9.44218C9.34733 9.44218 9.34733 9.44218 9.34734 9.44218C9.34734 9.44218 9.34734 9.44218 9.34734 9.44218C9.34734 9.44218 9.34734 9.44218 9.34734 9.44218C9.34734 9.44218 9.34734 9.44218 9.34734 9.44218C9.34734 9.44218 9.34734 9.44218 9.34734 9.44218C9.34735 9.44218 9.34735 9.44218 9.34735 9.44218C9.34735 9.44218 9.34735 9.44218 9.34735 9.44218C9.34735 9.44218 9.34735 9.44218 9.34735 9.44218C9.34735 9.44218 9.34735 9.44218 9.34735 9.44218C9.34735 9.44218 9.34735 9.44218 9.34736 9.44218C9.34736 9.44218 9.34736 9.44218 9.34736 9.44218C9.34736 9.44218 9.34736 9.44218 9.34736 9.44218C9.34736 9.44218 9.34736 9.44218 9.34736 9.44218C9.34736 9.44218 9.34736 9.44218 9.34736 9.44218C9.34736 9.44218 9.34737 9.44218 9.34737 9.44218C9.34737 9.44218 9.34737 9.44218 9.34737 9.44218C9.34737 9.44218 9.34737 9.44218 9.34737 9.44218C9.34737 9.44218 9.34737 9.44218 9.34737 9.44218C9.34737 9.44218 9.34737 9.44218 9.34737 9.44218C9.34738 9.44218 9.34738 9.44218 9.34738 9.44218C9.34738 9.44218 9.34738 9.44218 9.34738 9.44218C9.34738 9.44218 9.34738 9.44218 9.34738 9.44218C9.34738 9.44218 9.34738 9.44218 9.34738 9.44218C9.34738 9.44218 9.34738 9.44218 9.34739 9.44218C9.34739 9.44218 9.34739 9.44218 9.34739 9.44218C9.34739 9.44218 9.34739 9.44218 9.34739 9.44218C9.34739 9.44218 9.34739 9.44218 9.34739 9.44218C9.34739 9.44218 9.34739 9.44218 9.34739 9.44218C9.3474 9.44218 9.3474 9.44218 9.3474 9.44218C9.3474 9.44218 9.3474 9.44218 9.3474 9.44218C9.3474 9.44218 9.3474 9.44218 9.3474 9.44218C9.3474 9.44218 9.3474 9.44218 9.3474 9.44218C9.3474 9.44218 9.3474 9.44218 9.34741 9.44218C9.34741 9.44218 9.34741 9.44218 9.34741 9.44218C9.34741 9.44218 9.34741 9.44218 9.34741 9.44218C9.34741 9.44218 9.34741 9.44218 9.34741 9.44218C9.34741 9.44218 9.34741 9.44218 9.34741 9.44218C9.34741 9.44218 9.34742 9.44218 9.34742 9.44218C9.34742 9.44218 9.34742 9.44218 9.34742 9.44218C9.34742 9.44218 9.34742 9.44218 9.34742 9.44218C9.34742 9.44218 9.34742 9.44218 9.34742 9.44218C9.34742 9.44218 9.34742 9.44218 9.34742 9.44218C9.34743 9.44218 9.34743 9.44218 9.34743 9.44218C9.34743 9.44218 9.34743 9.44218 9.34743 9.44218C9.34743 9.44218 9.34743 9.44218 9.34743 9.44218C9.34743 9.44218 9.34743 9.44218 9.34743 9.44218C9.34743 9.44218 9.34743 9.44218 9.34744 9.44218C9.34744 9.44218 9.34744 9.44218 9.34744 9.44218C9.34744 9.44218 9.34744 9.44218 9.34744 9.44218C9.34744 9.44218 9.34744 9.44218 9.34744 9.44218C9.34744 9.44218 9.34744 9.44218 9.34744 9.44218C9.34745 9.44218 9.34745 9.44218 9.34745 9.44218C9.34745 9.44218 9.34745 9.44218 9.34745 9.44218C9.34745 9.44218 9.34745 9.44218 9.34745 9.44218C9.34745 9.44218 9.34745 9.44218 9.34745 9.44218C9.34745 9.44218 9.34745 9.44218 9.34746 9.44218C9.34746 9.44218 9.34746 9.44218 9.34746 9.44218C9.34746 9.44218 9.34746 9.44218 9.34746 9.44218C9.34746 9.44218 9.34746 9.44218 9.34746 9.44218C9.34746 9.44218 9.34746 9.44218 9.34746 9.44218C9.34746 9.44218 9.34747 9.44218 9.34747 9.44218C9.34747 9.44218 9.34747 9.44218 9.34747 9.44218C9.34747 9.44218 9.34747 9.44218 9.34747 9.44218C9.34747 9.44218 9.34747 9.44218 9.34747 9.44218C9.34747 9.44218 9.34747 9.44218 9.34747 9.44218C9.34748 9.44218 9.34748 9.44218 9.34748 9.44218C9.34748 9.44218 9.34748 9.44218 9.34748 9.44218C9.34748 9.44218 9.34748 9.44218 9.34748 9.44218C9.34748 9.44218 9.34748 9.44218 9.34748 9.44218C9.34748 9.44218 9.34748 9.44218 9.34749 9.44218C9.34749 9.44218 9.34749 9.44218 9.34749 9.44218C9.34749 9.44218 9.34749 9.44218 9.34749 9.44218C9.34749 9.44218 9.34749 9.44218 9.34749 9.44218C9.34749 9.44218 9.34749 9.44218 9.34749 9.44218C9.3475 9.44218 9.3475 9.44218 9.3475 9.44218C9.3475 9.44218 9.3475 9.44218 9.3475 9.44218C9.3475 9.44218 9.3475 9.44218 9.3475 9.44218C9.3475 9.44218 9.3475 9.44218 9.3475 9.44218C9.3475 9.44218 9.3475 9.44218 9.34751 9.44218C9.34751 9.44218 9.34751 9.44218 9.34751 9.44218C9.34751 9.44218 9.34751 9.44218 9.34751 9.44218C9.34751 9.44218 9.34751 9.44218 9.34751 9.44218C9.34751 9.44218 9.34751 9.44218 9.34751 9.44218C9.34751 9.44218 9.34752 9.44218 9.34752 9.44218C9.34752 9.44218 9.34752 9.44218 9.34752 9.44218C9.34752 9.44218 9.34752 9.44218 9.34752 9.44218C9.34752 9.44218 9.34752 9.44218 9.34752 9.44218C9.34752 9.44218 9.34752 9.44218 9.34752 9.44218C9.34753 9.44218 9.34753 9.44218 9.34753 9.44218C9.34753 9.44218 9.34753 9.44218 9.34753 9.44218C9.34753 9.44218 9.34753 9.44218 9.34753 9.44218C9.34753 9.44218 9.34753 9.44218 9.34753 9.44218C9.34753 9.44218 9.34753 9.44218 9.34754 9.44218C9.34754 9.44218 9.34754 9.44218 9.34754 9.44218C9.34754 9.44218 9.34754 9.44218 9.34754 9.44218C9.34754 9.44218 9.34754 9.44218 9.34754 9.44218C9.34754 9.44218 9.34754 9.44218 9.34754 9.44218C9.34755 9.44218 9.34755 9.44218 9.34755 9.44218C9.34755 9.44218 9.34755 9.44218 9.34755 9.44218C9.34755 9.44218 9.34755 9.44218 9.34755 9.44218C9.34755 9.44218 9.34755 9.44218 9.34755 9.44218C9.34755 9.44218 9.34755 9.44218 9.34756 9.44218C9.34756 9.44218 9.34756 9.44218 9.34756 9.44218C9.34756 9.44218 9.34756 9.44218 9.34756 9.44218C9.34756 9.44218 9.34756 9.44218 9.34756 9.44218C9.34756 9.44218 9.34756 9.44218 9.34756 9.44218C9.34756 9.44218 9.34757 9.44218 9.34757 9.44218C9.34757 9.44218 9.34757 9.44218 9.34757 9.44218C9.34757 9.44218 9.34757 9.44218 9.34757 9.44218C9.34757 9.44218 9.34757 9.44218 9.34757 9.44218C9.34757 9.44218 9.34757 9.44218 9.34757 9.44218C9.34758 9.44218 9.34758 9.44218 9.34758 9.44218C9.34758 9.44218 9.34758 9.44218 9.34758 9.44218C9.34758 9.44218 9.34758 9.44218 9.34758 9.44218C9.34758 9.44218 9.34758 9.44218 9.34758 9.44218C9.34758 9.44218 9.34758 9.44218 9.34759 9.44218C9.34759 9.44218 9.34759 9.44218 9.34759 9.44218C9.34759 9.44218 9.34759 9.44218 9.34759 9.44218C9.34759 9.44218 9.34759 9.44218 9.34759 9.44218C9.34759 9.44218 9.34759 9.44218 9.34759 9.44218C9.3476 9.44218 9.3476 9.44218 9.3476 9.44218C9.3476 9.44218 9.3476 9.44218 9.3476 9.44218C9.3476 9.44218 9.3476 9.44218 9.3476 9.44218C9.3476 9.44218 9.3476 9.44218 9.3476 9.44218C9.3476 9.44218 9.3476 9.44218 9.34761 9.44218C9.34761 9.44218 9.34761 9.44218 9.34761 9.44218C9.34761 9.44218 9.34761 9.44218 9.34761 9.44218C9.34761 9.44218 9.34761 9.44218 9.34761 9.44218C9.34761 9.44218 9.34761 9.44218 9.34761 9.44218C9.34761 9.44218 9.34762 9.44218 9.34762 9.44218C9.34762 9.44218 9.34762 9.44218 9.34762 9.44218C9.34762 9.44218 9.34762 9.44218 9.34762 9.44218C9.34762 9.44218 9.34762 9.44218 9.34762 9.44218C9.34762 9.44218 9.34762 9.44218 9.34762 9.44218C9.34763 9.44218 9.34763 9.44218 9.34763 9.44218C9.34763 9.44218 9.34763 9.44218 9.34763 9.44218C9.34763 9.44218 9.34763 9.44218 9.34763 9.44218C9.34763 9.44218 9.34763 9.44218 9.34763 9.44218C9.34763 9.44218 9.34763 9.44218 9.34764 9.44218C9.34764 9.44218 9.34764 9.44218 9.34764 9.44218C9.34764 9.44218 9.34764 9.44218 9.34764 9.44218C9.34764 9.44218 9.34764 9.44218 9.34764 9.44218C9.34764 9.44218 9.34764 9.44218 9.34764 9.44218C9.34765 9.44218 9.34765 9.44218 9.34765 9.44218C9.34765 9.44218 9.34765 9.44218 9.34765 9.44218C9.34765 9.44218 9.34765 9.44218 9.34765 9.44218C9.34765 9.44218 9.34765 9.44218 9.34765 9.44218C9.34765 9.44218 9.34765 9.44218 9.34766 9.44218C9.34766 9.44218 9.34766 9.44218 9.34766 9.44218C9.34766 9.44218 9.34766 9.44218 9.34766 9.44218C9.34766 9.44218 9.34766 9.44218 9.34766 9.44218C9.34766 9.44218 9.34766 9.44218 9.34766 9.44218C9.34766 9.44218 9.34767 9.44218 9.34767 9.44218C9.34767 9.44218 9.34767 9.44218 9.34767 9.44218C9.34767 9.44218 9.34767 9.44218 9.34767 9.44218C9.34767 9.44218 9.34767 9.44218 9.34767 9.44218C9.34767 9.44218 9.34767 9.44218 9.34767 9.44218C9.34768 9.44218 9.34768 9.44218 9.34768 9.44218C9.34768 9.44218 9.34768 9.44218 9.34768 9.44218C9.34768 9.44218 9.34768 9.44218 9.34768 9.44218C9.34768 9.44218 9.34768 9.44218 9.34768 9.44218C9.34768 9.44218 9.34769 9.44218 9.34769 9.44218C9.34769 9.44218 9.34769 9.44218 9.34769 9.44218C9.34769 9.44218 9.34769 9.44218 9.34769 9.44218C9.34769 9.44218 9.34769 9.44218 9.34769 9.44218C9.34769 9.44218 9.34769 9.44218 9.34769 9.44218C9.3477 9.44218 9.3477 9.44218 9.3477 9.44218C9.3477 9.44218 9.3477 9.44218 9.3477 9.44218C9.3477 9.44218 9.3477 9.44218 9.3477 9.44218C9.3477 9.44218 9.3477 9.44218 9.3477 9.44218C9.3477 9.44218 9.3477 9.44218 9.34771 9.44218C9.34771 9.44218 9.34771 9.44218 9.34771 9.44218C9.34771 9.44218 9.34771 9.44218 9.34771 9.44218C9.34771 9.44218 9.34771 9.44218 9.34771 9.44218C9.34771 9.44218 9.34771 9.44218 9.34771 9.44218C9.34771 9.44218 9.34772 9.44218 9.34772 9.44218C9.34772 9.44218 9.34772 9.44218 9.34772 9.44218C9.34772 9.44218 9.34772 9.44218 9.34772 9.44218C9.34772 9.44218 9.34772 9.44218 9.34772 9.44218C9.34772 9.44218 9.34772 9.44218 9.34772 9.44218C9.34773 9.44218 9.34773 9.44218 9.34773 9.44218C9.34773 9.44218 9.34773 9.44218 9.34773 9.44218C9.34773 9.44218 9.34773 9.44218 9.34773 9.44218C9.34773 9.44218 9.34773 9.44218 9.34773 9.44218C9.34773 9.44218 9.34774 9.44218 9.34774 9.44218C9.34774 9.44218 9.34774 9.44218 9.34774 9.44218C9.34774 9.44218 9.34774 9.44218 9.34774 9.44218C9.34774 9.44218 9.34774 9.44218 9.34774 9.44218C9.34774 9.44218 9.34774 9.44218 9.34774 9.44218C9.34775 9.44218 9.34775 9.44218 9.34775 9.44218C9.34775 9.44218 9.34775 9.44218 9.34775 9.44218C9.34775 9.44218 9.34775 9.44218 9.34775 9.44218C9.34775 9.44218 9.34775 9.44218 9.34775 9.44218C9.34775 9.44218 9.34775 9.44218 9.34776 9.44218C9.34776 9.44218 9.34776 9.44218 9.34776 9.44218C9.34776 9.44218 9.34776 9.44218 9.34776 9.44218C9.34776 9.44218 9.34776 9.44218 9.34776 9.44218C9.34776 9.44218 9.34776 9.44218 9.34776 9.44218C9.34776 9.44218 9.34777 9.44218 9.34777 9.44218C9.34777 9.44218 9.34777 9.44218 9.34777 9.44218C9.34777 9.44218 9.34777 9.44218 9.34777 9.44218C9.34777 9.44218 9.34777 9.44218 9.34777 9.44218C9.34777 9.44218 9.34777 9.44218 9.34777 9.44218C9.34778 9.44218 9.34778 9.44218 9.34778 9.44218C9.34778 9.44218 9.34778 9.44218 9.34778 9.44218C9.34778 9.44218 9.34778 9.44218 9.34778 9.44218C9.34778 9.44218 9.34778 9.44218 9.34778 9.44218C9.34778 9.44218 9.34779 9.44218 9.34779 9.44218C9.34779 9.44218 9.34779 9.44218 9.34779 9.44218C9.34779 9.44218 9.34779 9.44218 9.34779 9.44218C9.34779 9.44218 9.34779 9.44218 9.34779 9.44218C9.34779 9.44218 9.34779 9.44218 9.34779 9.44218C9.3478 9.44218 9.3478 9.44218 9.3478 9.44218C9.3478 9.44218 9.3478 9.44218 9.3478 9.44218C9.3478 9.44218 9.3478 9.44218 9.3478 9.44218C9.3478 9.44218 9.3478 9.44218 9.3478 9.44218C9.3478 9.44218 9.3478 9.44218 9.34781 9.44218C9.34781 9.44218 9.34781 9.44218 9.34781 9.44218C9.34781 9.44218 9.34781 9.44218 9.34781 9.44218C9.34781 9.44218 9.34781 9.44218 9.34781 9.44218C9.34781 9.44218 9.34781 9.44218 9.34781 9.44218C9.34781 9.44218 9.34782 9.44218 9.34782 9.44218C9.34782 9.44218 9.34782 9.44218 9.34782 9.44218C9.34782 9.44218 9.34782 9.44218 9.34782 9.44218C9.34782 9.44218 9.34782 9.44218 9.34782 9.44218C9.34782 9.44218 9.34782 9.44218 9.34782 9.44218C9.34783 9.44218 9.34783 9.44218 9.34783 9.44218C9.34783 9.44218 9.34783 9.44218 9.34783 9.44218C9.34783 9.44218 9.34783 9.44218 9.34783 9.44218C9.34783 9.44218 9.34783 9.44218 9.34783 9.44218C9.34783 9.44218 9.34784 9.44218 9.34784 9.44218C9.34784 9.44218 9.34784 9.44218 9.34784 9.44218C9.34784 9.44218 9.34784 9.44218 9.34784 9.44218C9.34784 9.44218 9.34784 9.44218 9.34784 9.44218C9.34784 9.44218 9.34784 9.44218 9.34784 9.44218C9.34785 9.44218 9.34785 9.44218 9.34785 9.44218C9.34785 9.44218 9.34785 9.44218 9.34785 9.44218C9.34785 9.44218 9.34785 9.44218 9.34785 9.44218C9.34785 9.44218 9.34785 9.44218 9.34785 9.44218C9.34785 9.44218 9.34785 9.44218 9.34786 9.44218C9.34786 9.44218 9.34786 9.44218 9.34786 9.44218C9.34786 9.44218 9.34786 9.44218 9.34786 9.44218C9.34786 9.44218 9.34786 9.44218 9.34786 9.44218C9.34786 9.44218 9.34786 9.44218 9.34786 9.44218C9.34786 9.44218 9.34787 9.44218 9.34787 9.44218C9.34787 9.44218 9.34787 9.44218 9.34787 9.44218C9.34787 9.44218 9.34787 9.44218 9.34787 9.44218C9.34787 9.44218 9.34787 9.44218 9.34787 9.44218C9.34787 9.44218 9.34787 9.44218 9.34787 9.44218C9.34788 9.44218 9.34788 9.44218 9.34788 9.44218C9.34788 9.44218 9.34788 9.44218 9.34788 9.44218C9.34788 9.44218 9.34788 9.44218 9.34788 9.44218C9.34788 9.44218 9.34788 9.44218 9.34788 9.44218C9.34788 9.44218 9.34789 9.44218 9.34789 9.44218C9.34789 9.44218 9.34789 9.44218 9.34789 9.44218C9.34789 9.44218 9.34789 9.44218 9.34789 9.44218C9.34789 9.44218 9.34789 9.44218 9.34789 9.44218C9.34789 9.44218 9.34789 9.44218 9.34789 9.44218C9.3479 9.44218 9.3479 9.44218 9.3479 9.44218C9.3479 9.44218 9.3479 9.44218 9.3479 9.44218C9.3479 9.44218 9.3479 9.44218 9.3479 9.44218C9.3479 9.44218 9.3479 9.44218 9.3479 9.44218C9.3479 9.44218 9.3479 9.44218 9.34791 9.44218C9.34791 9.44218 9.34791 9.44218 9.34791 9.44218C9.34791 9.44218 9.34791 9.44218 9.34791 9.44218C9.34791 9.44218 9.34791 9.44218 9.34791 9.44218C9.34791 9.44218 9.34791 9.44218 9.34791 9.44218C9.34791 9.44218 9.34792 9.44218 9.34792 9.44218C9.34792 9.44218 9.34792 9.44218 9.34792 9.44218C9.34792 9.44218 9.34792 9.44218 9.34792 9.44218C9.34792 9.44218 9.34792 9.44218 9.34792 9.44218C9.34792 9.44218 9.34792 9.44218 9.34792 9.44218C9.34793 9.44218 9.34793 9.44218 9.34793 9.44218C9.34793 9.44218 9.34793 9.44218 9.34793 9.44218C9.34793 9.44218 9.34793 9.44218 9.34793 9.44218C9.34793 9.44218 9.34793 9.44218 9.34793 9.44218C9.34793 9.44218 9.34794 9.44218 9.34794 9.44218C9.34794 9.44218 9.34794 9.44218 9.34794 9.44218C9.34794 9.44218 9.34794 9.44218 9.34794 9.44218C9.34794 9.44218 9.34794 9.44218 9.34794 9.44218C9.34794 9.44218 9.34794 9.44218 9.34794 9.44218C9.34795 9.44218 9.34795 9.44218 9.34795 9.44218C9.34795 9.44218 9.34795 9.44218 9.34795 9.44218C9.34795 9.44218 9.34795 9.44218 9.34795 9.44218C9.34795 9.44218 9.34795 9.44218 9.34795 9.44218C9.34795 9.44218 9.34795 9.44218 9.34796 9.44218C9.34796 9.44218 9.34796 9.44218 9.34796 9.44218C9.34796 9.44218 9.34796 9.44218 9.34796 9.44218C9.34796 9.44218 9.34796 9.44218 9.34796 9.44218C9.34796 9.44218 9.34796 9.44218 9.34796 9.44218C9.34796 9.44218 9.34797 9.44218 9.34797 9.44218C9.34797 9.44218 9.34797 9.44218 9.34797 9.44218C9.34797 9.44218 9.34797 9.44218 9.34797 9.44218C9.34797 9.44218 9.34797 9.44218 9.34797 9.44218C9.34797 9.44218 9.34797 9.44218 9.34797 9.44218C9.34798 9.44218 9.34798 9.44218 9.34798 9.44218C9.34798 9.44218 9.34798 9.44218 9.34798 9.44218C9.34798 9.44218 9.34798 9.44218 9.34798 9.44218C9.34798 9.44218 9.34798 9.44218 9.34798 9.44218C9.34798 9.44218 9.34799 9.44218 9.34799 9.44218C9.34799 9.44218 9.34799 9.44218 9.34799 9.44218C9.34799 9.44218 9.34799 9.44218 9.34799 9.44218C9.34799 9.44218 9.34799 9.44218 9.34799 9.44218C9.34799 9.44218 9.34799 9.44218 9.34799 9.44218C9.348 9.44218 9.348 9.44218 9.348 9.44218C9.348 9.44218 9.348 9.44218 9.348 9.44218C9.348 9.44218 9.348 9.44218 9.348 9.44218C9.348 9.44218 9.348 9.44218 9.348 9.44218C9.348 9.44218 9.348 9.44218 9.34801 9.44218C9.34801 9.44218 9.34801 9.44218 9.34801 9.44218C9.34801 9.44218 9.34801 9.44218 9.34801 9.44218C9.34801 9.44218 9.34801 9.44218 9.34801 9.44218C9.34801 9.44218 9.34801 9.44218 9.34801 9.44218C9.34801 9.44218 9.34802 9.44218 9.34802 9.44218C9.34802 9.44218 9.34802 9.44218 9.34802 9.44218C9.34802 9.44218 9.34802 9.44218 9.34802 9.44218C9.34802 9.44218 9.34802 9.44218 9.34802 9.44218C9.34802 9.44218 9.34802 9.44218 9.34802 9.44218C9.34803 9.44218 9.34803 9.44218 9.34803 9.44218C9.34803 9.44218 9.34803 9.44218 9.34803 9.44218C9.34803 9.44218 9.34803 9.44218 9.34803 9.44218C9.34803 9.44218 9.34803 9.44218 9.34803 9.44218C9.34803 9.44218 9.34804 9.44218 9.34804 9.44218C9.34804 9.44218 9.34804 9.44218 9.34804 9.44218C9.34804 9.44218 9.34804 9.44218 9.34804 9.44218C9.34804 9.44218 9.34804 9.44218 9.34804 9.44218C9.34804 9.44218 9.34804 9.44218 9.34804 9.44218C9.34805 9.44218 9.34805 9.44218 9.34805 9.44218C9.34805 9.44218 9.34805 9.44218 9.34805 9.44218C9.34805 9.44218 9.34805 9.44218 9.34805 9.44218C9.34805 9.44218 9.34805 9.44218 9.34805 9.44218C9.34805 9.44218 9.34805 9.44218 9.34806 9.44218C9.34806 9.44218 9.34806 9.44218 9.34806 9.44218C9.34806 9.44218 9.34806 9.44218 9.34806 9.44218C9.34806 9.44218 9.34806 9.44218 9.34806 9.44218C9.34806 9.44218 9.34806 9.44218 9.34806 9.44218C9.34806 9.44218 9.34807 9.44218 9.34807 9.44218C9.34807 9.44218 9.34807 9.44218 9.34807 9.44218C9.34807 9.44218 9.34807 9.44218 9.34807 9.44218C9.34807 9.44218 9.34807 9.44218 9.34807 9.44218C9.34807 9.44218 9.34807 9.44218 9.34807 9.44218C9.34808 9.44218 9.34808 9.44218 9.34808 9.44218C9.34808 9.44218 9.34808 9.44218 9.34808 9.44218C9.34808 9.44218 9.34808 9.44218 9.34808 9.44218C9.34808 9.44218 9.34808 9.44218 9.34808 9.44218C9.34808 9.44218 9.34809 9.44218 9.34809 9.44218C9.34809 9.44218 9.34809 9.44218 9.34809 9.44218C9.34809 9.44218 9.34809 9.44218 9.34809 9.44218C9.34809 9.44218 9.34809 9.44218 9.34809 9.44218C9.34809 9.44218 9.34809 9.44218 9.34809 9.44218C9.3481 9.44218 9.3481 9.44218 9.3481 9.44218C9.3481 9.44218 9.3481 9.44218 9.3481 9.44218C9.3481 9.44218 9.3481 9.44218 9.3481 9.44218C9.3481 9.44218 9.3481 9.44218 9.3481 9.44218C9.3481 9.44218 9.3481 9.44218 9.34811 9.44218C9.34811 9.44218 9.34811 9.44218 9.34811 9.44218C9.34811 9.44218 9.34811 9.44218 9.34811 9.44218C9.34811 9.44218 9.34811 9.44218 9.34811 9.44218C9.34811 9.44218 9.34811 9.44218 9.34811 9.44218C9.34811 9.44218 9.34812 9.44218 9.34812 9.44218C9.34812 9.44218 9.34812 9.44218 9.34812 9.44218C9.34812 9.44218 9.34812 9.44218 9.34812 9.44218C9.34812 9.44218 9.34812 9.44218 9.34812 9.44218C9.34812 9.44218 9.34812 9.44218 9.34812 9.44218C9.34813 9.44218 9.34813 9.44218 9.34813 9.44218C9.34813 9.44218 9.34813 9.44218 9.34813 9.44218C9.34813 9.44218 9.34813 9.44218 9.34813 9.44218C9.34813 9.44218 9.34813 9.44218 9.34813 9.44218C9.34813 9.44218 9.34814 9.44218 9.34814 9.44218C9.34814 9.44218 9.34814 9.44218 9.34814 9.44218C9.34814 9.44218 9.34814 9.44218 9.34814 9.44218C9.34814 9.44218 9.34814 9.44218 9.34814 9.44218C9.34814 9.44218 9.34814 9.44218 9.34814 9.44218C9.34815 9.44218 9.34815 9.44218 9.34815 9.44218C9.34815 9.44218 9.34815 9.44218 9.34815 9.44218C9.34815 9.44218 9.34815 9.44218 9.34815 9.44218C9.34815 9.44218 9.34815 9.44218 9.34815 9.44218C9.34815 9.44218 9.34815 9.44218 9.34816 9.44218C9.34816 9.44218 9.34816 9.44218 9.34816 9.44218C9.34816 9.44218 9.34816 9.44218 9.34816 9.44218C9.34816 9.44218 9.34816 9.44218 9.34816 9.44218C9.34816 9.44218 9.34816 9.44218 9.34816 9.44218C9.34816 9.44218 9.34817 9.44218 9.34817 9.44218C9.34817 9.44218 9.34817 9.44218 9.34817 9.44218C9.34817 9.44218 9.34817 9.44218 9.34817 9.44218C9.34817 9.44218 9.34817 9.44218 9.34817 9.44218C9.34817 9.44218 9.34817 9.44218 9.34817 9.44218C9.34818 9.44218 9.34818 9.44218 9.34818 9.44218C9.34818 9.44218 9.34818 9.44218 9.34818 9.44218C9.34818 9.44218 9.34818 9.44218 9.34818 9.44218C9.34818 9.44218 9.34818 9.44218 9.34818 9.44218C9.34818 9.44218 9.34819 9.44218 9.34819 9.44218C9.34819 9.44218 9.34819 9.44218 9.34819 9.44218C9.34819 9.44218 9.34819 9.44218 9.34819 9.44218C9.34819 9.44218 9.34819 9.44218 9.34819 9.44218C9.34819 9.44218 9.34819 9.44218 9.34819 9.44218C9.3482 9.44218 9.3482 9.44218 9.3482 9.44218C9.3482 9.44218 9.3482 9.44218 9.3482 9.44218C9.3482 9.44218 9.3482 9.44218 9.3482 9.44218C9.3482 9.44218 9.3482 9.44218 9.3482 9.44218C9.3482 9.44218 9.3482 9.44218 9.34821 9.44218C9.34821 9.44218 9.34821 9.44218 9.34821 9.44218C9.34821 9.44218 9.34821 9.44218 9.34821 9.44218C9.34821 9.44218 9.34821 9.44218 9.34821 9.44218C9.34821 9.44218 9.34821 9.44218 9.34821 9.44218C9.34821 9.44218 9.34822 9.44218 9.34822 9.44218C9.34822 9.44218 9.34822 9.44218 9.34822 9.44218C9.34822 9.44218 9.34822 9.44218 9.34822 9.44218C9.34822 9.44218 9.34822 9.44218 9.34822 9.44218V9.14218C9.34822 9.14218 9.34822 9.14218 9.34822 9.14218C9.34822 9.14218 9.34822 9.14218 9.34822 9.14218C9.34822 9.14218 9.34822 9.14218 9.34822 9.14218C9.34822 9.14218 9.34821 9.14218 9.34821 9.14218C9.34821 9.14218 9.34821 9.14218 9.34821 9.14218C9.34821 9.14218 9.34821 9.14218 9.34821 9.14218C9.34821 9.14218 9.34821 9.14218 9.34821 9.14218C9.34821 9.14218 9.34821 9.14218 9.34821 9.14218C9.3482 9.14218 9.3482 9.14218 9.3482 9.14218C9.3482 9.14218 9.3482 9.14218 9.3482 9.14218C9.3482 9.14218 9.3482 9.14218 9.3482 9.14218C9.3482 9.14218 9.3482 9.14218 9.3482 9.14218C9.3482 9.14218 9.3482 9.14218 9.34819 9.14218C9.34819 9.14218 9.34819 9.14218 9.34819 9.14218C9.34819 9.14218 9.34819 9.14218 9.34819 9.14218C9.34819 9.14218 9.34819 9.14218 9.34819 9.14218C9.34819 9.14218 9.34819 9.14218 9.34819 9.14218C9.34819 9.14218 9.34818 9.14218 9.34818 9.14218C9.34818 9.14218 9.34818 9.14218 9.34818 9.14218C9.34818 9.14218 9.34818 9.14218 9.34818 9.14218C9.34818 9.14218 9.34818 9.14218 9.34818 9.14218C9.34818 9.14218 9.34818 9.14218 9.34817 9.14218C9.34817 9.14218 9.34817 9.14218 9.34817 9.14218C9.34817 9.14218 9.34817 9.14218 9.34817 9.14218C9.34817 9.14218 9.34817 9.14218 9.34817 9.14218C9.34817 9.14218 9.34817 9.14218 9.34817 9.14218C9.34817 9.14218 9.34816 9.14218 9.34816 9.14218C9.34816 9.14218 9.34816 9.14218 9.34816 9.14218C9.34816 9.14218 9.34816 9.14218 9.34816 9.14218C9.34816 9.14218 9.34816 9.14218 9.34816 9.14218C9.34816 9.14218 9.34816 9.14218 9.34816 9.14218C9.34815 9.14218 9.34815 9.14218 9.34815 9.14218C9.34815 9.14218 9.34815 9.14218 9.34815 9.14218C9.34815 9.14218 9.34815 9.14218 9.34815 9.14218C9.34815 9.14218 9.34815 9.14218 9.34815 9.14218C9.34815 9.14218 9.34815 9.14218 9.34814 9.14218C9.34814 9.14218 9.34814 9.14218 9.34814 9.14218C9.34814 9.14218 9.34814 9.14218 9.34814 9.14218C9.34814 9.14218 9.34814 9.14218 9.34814 9.14218C9.34814 9.14218 9.34814 9.14218 9.34814 9.14218C9.34814 9.14218 9.34813 9.14218 9.34813 9.14218C9.34813 9.14218 9.34813 9.14218 9.34813 9.14218C9.34813 9.14218 9.34813 9.14218 9.34813 9.14218C9.34813 9.14218 9.34813 9.14218 9.34813 9.14218C9.34813 9.14218 9.34813 9.14218 9.34812 9.14218C9.34812 9.14218 9.34812 9.14218 9.34812 9.14218C9.34812 9.14218 9.34812 9.14218 9.34812 9.14218C9.34812 9.14218 9.34812 9.14218 9.34812 9.14218C9.34812 9.14218 9.34812 9.14218 9.34812 9.14218C9.34812 9.14218 9.34811 9.14218 9.34811 9.14218C9.34811 9.14218 9.34811 9.14218 9.34811 9.14218C9.34811 9.14218 9.34811 9.14218 9.34811 9.14218C9.34811 9.14218 9.34811 9.14218 9.34811 9.14218C9.34811 9.14218 9.34811 9.14218 9.34811 9.14218C9.3481 9.14218 9.3481 9.14218 9.3481 9.14218C9.3481 9.14218 9.3481 9.14218 9.3481 9.14218C9.3481 9.14218 9.3481 9.14218 9.3481 9.14218C9.3481 9.14218 9.3481 9.14218 9.3481 9.14218C9.3481 9.14218 9.3481 9.14218 9.34809 9.14218C9.34809 9.14218 9.34809 9.14218 9.34809 9.14218C9.34809 9.14218 9.34809 9.14218 9.34809 9.14218C9.34809 9.14218 9.34809 9.14218 9.34809 9.14218C9.34809 9.14218 9.34809 9.14218 9.34809 9.14218C9.34809 9.14218 9.34808 9.14218 9.34808 9.14218C9.34808 9.14218 9.34808 9.14218 9.34808 9.14218C9.34808 9.14218 9.34808 9.14218 9.34808 9.14218C9.34808 9.14218 9.34808 9.14218 9.34808 9.14218C9.34808 9.14218 9.34808 9.14218 9.34807 9.14218C9.34807 9.14218 9.34807 9.14218 9.34807 9.14218C9.34807 9.14218 9.34807 9.14218 9.34807 9.14218C9.34807 9.14218 9.34807 9.14218 9.34807 9.14218C9.34807 9.14218 9.34807 9.14218 9.34807 9.14218C9.34807 9.14218 9.34806 9.14218 9.34806 9.14218C9.34806 9.14218 9.34806 9.14218 9.34806 9.14218C9.34806 9.14218 9.34806 9.14218 9.34806 9.14218C9.34806 9.14218 9.34806 9.14218 9.34806 9.14218C9.34806 9.14218 9.34806 9.14218 9.34806 9.14218C9.34805 9.14218 9.34805 9.14218 9.34805 9.14218C9.34805 9.14218 9.34805 9.14218 9.34805 9.14218C9.34805 9.14218 9.34805 9.14218 9.34805 9.14218C9.34805 9.14218 9.34805 9.14218 9.34805 9.14218C9.34805 9.14218 9.34805 9.14218 9.34804 9.14218C9.34804 9.14218 9.34804 9.14218 9.34804 9.14218C9.34804 9.14218 9.34804 9.14218 9.34804 9.14218C9.34804 9.14218 9.34804 9.14218 9.34804 9.14218C9.34804 9.14218 9.34804 9.14218 9.34804 9.14218C9.34804 9.14218 9.34803 9.14218 9.34803 9.14218C9.34803 9.14218 9.34803 9.14218 9.34803 9.14218C9.34803 9.14218 9.34803 9.14218 9.34803 9.14218C9.34803 9.14218 9.34803 9.14218 9.34803 9.14218C9.34803 9.14218 9.34803 9.14218 9.34802 9.14218C9.34802 9.14218 9.34802 9.14218 9.34802 9.14218C9.34802 9.14218 9.34802 9.14218 9.34802 9.14218C9.34802 9.14218 9.34802 9.14218 9.34802 9.14218C9.34802 9.14218 9.34802 9.14218 9.34802 9.14218C9.34802 9.14218 9.34801 9.14218 9.34801 9.14218C9.34801 9.14218 9.34801 9.14218 9.34801 9.14218C9.34801 9.14218 9.34801 9.14218 9.34801 9.14218C9.34801 9.14218 9.34801 9.14218 9.34801 9.14218C9.34801 9.14218 9.34801 9.14218 9.34801 9.14218C9.348 9.14218 9.348 9.14218 9.348 9.14218C9.348 9.14218 9.348 9.14218 9.348 9.14218C9.348 9.14218 9.348 9.14218 9.348 9.14218C9.348 9.14218 9.348 9.14218 9.348 9.14218C9.348 9.14218 9.348 9.14218 9.34799 9.14218C9.34799 9.14218 9.34799 9.14218 9.34799 9.14218C9.34799 9.14218 9.34799 9.14218 9.34799 9.14218C9.34799 9.14218 9.34799 9.14218 9.34799 9.14218C9.34799 9.14218 9.34799 9.14218 9.34799 9.14218C9.34799 9.14218 9.34798 9.14218 9.34798 9.14218C9.34798 9.14218 9.34798 9.14218 9.34798 9.14218C9.34798 9.14218 9.34798 9.14218 9.34798 9.14218C9.34798 9.14218 9.34798 9.14218 9.34798 9.14218C9.34798 9.14218 9.34798 9.14218 9.34797 9.14218C9.34797 9.14218 9.34797 9.14218 9.34797 9.14218C9.34797 9.14218 9.34797 9.14218 9.34797 9.14218C9.34797 9.14218 9.34797 9.14218 9.34797 9.14218C9.34797 9.14218 9.34797 9.14218 9.34797 9.14218C9.34797 9.14218 9.34796 9.14218 9.34796 9.14218C9.34796 9.14218 9.34796 9.14218 9.34796 9.14218C9.34796 9.14218 9.34796 9.14218 9.34796 9.14218C9.34796 9.14218 9.34796 9.14218 9.34796 9.14218C9.34796 9.14218 9.34796 9.14218 9.34796 9.14218C9.34795 9.14218 9.34795 9.14218 9.34795 9.14218C9.34795 9.14218 9.34795 9.14218 9.34795 9.14218C9.34795 9.14218 9.34795 9.14218 9.34795 9.14218C9.34795 9.14218 9.34795 9.14218 9.34795 9.14218C9.34795 9.14218 9.34795 9.14218 9.34794 9.14218C9.34794 9.14218 9.34794 9.14218 9.34794 9.14218C9.34794 9.14218 9.34794 9.14218 9.34794 9.14218C9.34794 9.14218 9.34794 9.14218 9.34794 9.14218C9.34794 9.14218 9.34794 9.14218 9.34794 9.14218C9.34794 9.14218 9.34793 9.14218 9.34793 9.14218C9.34793 9.14218 9.34793 9.14218 9.34793 9.14218C9.34793 9.14218 9.34793 9.14218 9.34793 9.14218C9.34793 9.14218 9.34793 9.14218 9.34793 9.14218C9.34793 9.14218 9.34793 9.14218 9.34792 9.14218C9.34792 9.14218 9.34792 9.14218 9.34792 9.14218C9.34792 9.14218 9.34792 9.14218 9.34792 9.14218C9.34792 9.14218 9.34792 9.14218 9.34792 9.14218C9.34792 9.14218 9.34792 9.14218 9.34792 9.14218C9.34792 9.14218 9.34791 9.14218 9.34791 9.14218C9.34791 9.14218 9.34791 9.14218 9.34791 9.14218C9.34791 9.14218 9.34791 9.14218 9.34791 9.14218C9.34791 9.14218 9.34791 9.14218 9.34791 9.14218C9.34791 9.14218 9.34791 9.14218 9.34791 9.14218C9.3479 9.14218 9.3479 9.14218 9.3479 9.14218C9.3479 9.14218 9.3479 9.14218 9.3479 9.14218C9.3479 9.14218 9.3479 9.14218 9.3479 9.14218C9.3479 9.14218 9.3479 9.14218 9.3479 9.14218C9.3479 9.14218 9.3479 9.14218 9.34789 9.14218C9.34789 9.14218 9.34789 9.14218 9.34789 9.14218C9.34789 9.14218 9.34789 9.14218 9.34789 9.14218C9.34789 9.14218 9.34789 9.14218 9.34789 9.14218C9.34789 9.14218 9.34789 9.14218 9.34789 9.14218C9.34789 9.14218 9.34788 9.14218 9.34788 9.14218C9.34788 9.14218 9.34788 9.14218 9.34788 9.14218C9.34788 9.14218 9.34788 9.14218 9.34788 9.14218C9.34788 9.14218 9.34788 9.14218 9.34788 9.14218C9.34788 9.14218 9.34788 9.14218 9.34787 9.14218C9.34787 9.14218 9.34787 9.14218 9.34787 9.14218C9.34787 9.14218 9.34787 9.14218 9.34787 9.14218C9.34787 9.14218 9.34787 9.14218 9.34787 9.14218C9.34787 9.14218 9.34787 9.14218 9.34787 9.14218C9.34787 9.14218 9.34786 9.14218 9.34786 9.14218C9.34786 9.14218 9.34786 9.14218 9.34786 9.14218C9.34786 9.14218 9.34786 9.14218 9.34786 9.14218C9.34786 9.14218 9.34786 9.14218 9.34786 9.14218C9.34786 9.14218 9.34786 9.14218 9.34786 9.14218C9.34785 9.14218 9.34785 9.14218 9.34785 9.14218C9.34785 9.14218 9.34785 9.14218 9.34785 9.14218C9.34785 9.14218 9.34785 9.14218 9.34785 9.14218C9.34785 9.14218 9.34785 9.14218 9.34785 9.14218C9.34785 9.14218 9.34785 9.14218 9.34784 9.14218C9.34784 9.14218 9.34784 9.14218 9.34784 9.14218C9.34784 9.14218 9.34784 9.14218 9.34784 9.14218C9.34784 9.14218 9.34784 9.14218 9.34784 9.14218C9.34784 9.14218 9.34784 9.14218 9.34784 9.14218C9.34784 9.14218 9.34783 9.14218 9.34783 9.14218C9.34783 9.14218 9.34783 9.14218 9.34783 9.14218C9.34783 9.14218 9.34783 9.14218 9.34783 9.14218C9.34783 9.14218 9.34783 9.14218 9.34783 9.14218C9.34783 9.14218 9.34783 9.14218 9.34782 9.14218C9.34782 9.14218 9.34782 9.14218 9.34782 9.14218C9.34782 9.14218 9.34782 9.14218 9.34782 9.14218C9.34782 9.14218 9.34782 9.14218 9.34782 9.14218C9.34782 9.14218 9.34782 9.14218 9.34782 9.14218C9.34782 9.14218 9.34781 9.14218 9.34781 9.14218C9.34781 9.14218 9.34781 9.14218 9.34781 9.14218C9.34781 9.14218 9.34781 9.14218 9.34781 9.14218C9.34781 9.14218 9.34781 9.14218 9.34781 9.14218C9.34781 9.14218 9.34781 9.14218 9.34781 9.14218C9.3478 9.14218 9.3478 9.14218 9.3478 9.14218C9.3478 9.14218 9.3478 9.14218 9.3478 9.14218C9.3478 9.14218 9.3478 9.14218 9.3478 9.14218C9.3478 9.14218 9.3478 9.14218 9.3478 9.14218C9.3478 9.14218 9.3478 9.14218 9.34779 9.14218C9.34779 9.14218 9.34779 9.14218 9.34779 9.14218C9.34779 9.14218 9.34779 9.14218 9.34779 9.14218C9.34779 9.14218 9.34779 9.14218 9.34779 9.14218C9.34779 9.14218 9.34779 9.14218 9.34779 9.14218C9.34779 9.14218 9.34778 9.14218 9.34778 9.14218C9.34778 9.14218 9.34778 9.14218 9.34778 9.14218C9.34778 9.14218 9.34778 9.14218 9.34778 9.14218C9.34778 9.14218 9.34778 9.14218 9.34778 9.14218C9.34778 9.14218 9.34778 9.14218 9.34777 9.14218C9.34777 9.14218 9.34777 9.14218 9.34777 9.14218C9.34777 9.14218 9.34777 9.14218 9.34777 9.14218C9.34777 9.14218 9.34777 9.14218 9.34777 9.14218C9.34777 9.14218 9.34777 9.14218 9.34777 9.14218C9.34777 9.14218 9.34776 9.14218 9.34776 9.14218C9.34776 9.14218 9.34776 9.14218 9.34776 9.14218C9.34776 9.14218 9.34776 9.14218 9.34776 9.14218C9.34776 9.14218 9.34776 9.14218 9.34776 9.14218C9.34776 9.14218 9.34776 9.14218 9.34776 9.14218C9.34775 9.14218 9.34775 9.14218 9.34775 9.14218C9.34775 9.14218 9.34775 9.14218 9.34775 9.14218C9.34775 9.14218 9.34775 9.14218 9.34775 9.14218C9.34775 9.14218 9.34775 9.14218 9.34775 9.14218C9.34775 9.14218 9.34775 9.14218 9.34774 9.14218C9.34774 9.14218 9.34774 9.14218 9.34774 9.14218C9.34774 9.14218 9.34774 9.14218 9.34774 9.14218C9.34774 9.14218 9.34774 9.14218 9.34774 9.14218C9.34774 9.14218 9.34774 9.14218 9.34774 9.14218C9.34774 9.14218 9.34773 9.14218 9.34773 9.14218C9.34773 9.14218 9.34773 9.14218 9.34773 9.14218C9.34773 9.14218 9.34773 9.14218 9.34773 9.14218C9.34773 9.14218 9.34773 9.14218 9.34773 9.14218C9.34773 9.14218 9.34773 9.14218 9.34772 9.14218C9.34772 9.14218 9.34772 9.14218 9.34772 9.14218C9.34772 9.14218 9.34772 9.14218 9.34772 9.14218C9.34772 9.14218 9.34772 9.14218 9.34772 9.14218C9.34772 9.14218 9.34772 9.14218 9.34772 9.14218C9.34772 9.14218 9.34771 9.14218 9.34771 9.14218C9.34771 9.14218 9.34771 9.14218 9.34771 9.14218C9.34771 9.14218 9.34771 9.14218 9.34771 9.14218C9.34771 9.14218 9.34771 9.14218 9.34771 9.14218C9.34771 9.14218 9.34771 9.14218 9.34771 9.14218C9.3477 9.14218 9.3477 9.14218 9.3477 9.14218C9.3477 9.14218 9.3477 9.14218 9.3477 9.14218C9.3477 9.14218 9.3477 9.14218 9.3477 9.14218C9.3477 9.14218 9.3477 9.14218 9.3477 9.14218C9.3477 9.14218 9.3477 9.14218 9.34769 9.14218C9.34769 9.14218 9.34769 9.14218 9.34769 9.14218C9.34769 9.14218 9.34769 9.14218 9.34769 9.14218C9.34769 9.14218 9.34769 9.14218 9.34769 9.14218C9.34769 9.14218 9.34769 9.14218 9.34769 9.14218C9.34769 9.14218 9.34768 9.14218 9.34768 9.14218C9.34768 9.14218 9.34768 9.14218 9.34768 9.14218C9.34768 9.14218 9.34768 9.14218 9.34768 9.14218C9.34768 9.14218 9.34768 9.14218 9.34768 9.14218C9.34768 9.14218 9.34768 9.14218 9.34767 9.14218C9.34767 9.14218 9.34767 9.14218 9.34767 9.14218C9.34767 9.14218 9.34767 9.14218 9.34767 9.14218C9.34767 9.14218 9.34767 9.14218 9.34767 9.14218C9.34767 9.14218 9.34767 9.14218 9.34767 9.14218C9.34767 9.14218 9.34766 9.14218 9.34766 9.14218C9.34766 9.14218 9.34766 9.14218 9.34766 9.14218C9.34766 9.14218 9.34766 9.14218 9.34766 9.14218C9.34766 9.14218 9.34766 9.14218 9.34766 9.14218C9.34766 9.14218 9.34766 9.14218 9.34766 9.14218C9.34765 9.14218 9.34765 9.14218 9.34765 9.14218C9.34765 9.14218 9.34765 9.14218 9.34765 9.14218C9.34765 9.14218 9.34765 9.14218 9.34765 9.14218C9.34765 9.14218 9.34765 9.14218 9.34765 9.14218C9.34765 9.14218 9.34765 9.14218 9.34764 9.14218C9.34764 9.14218 9.34764 9.14218 9.34764 9.14218C9.34764 9.14218 9.34764 9.14218 9.34764 9.14218C9.34764 9.14218 9.34764 9.14218 9.34764 9.14218C9.34764 9.14218 9.34764 9.14218 9.34764 9.14218C9.34763 9.14218 9.34763 9.14218 9.34763 9.14218C9.34763 9.14218 9.34763 9.14218 9.34763 9.14218C9.34763 9.14218 9.34763 9.14218 9.34763 9.14218C9.34763 9.14218 9.34763 9.14218 9.34763 9.14218C9.34763 9.14218 9.34763 9.14218 9.34762 9.14218C9.34762 9.14218 9.34762 9.14218 9.34762 9.14218C9.34762 9.14218 9.34762 9.14218 9.34762 9.14218C9.34762 9.14218 9.34762 9.14218 9.34762 9.14218C9.34762 9.14218 9.34762 9.14218 9.34762 9.14218C9.34762 9.14218 9.34761 9.14218 9.34761 9.14218C9.34761 9.14218 9.34761 9.14218 9.34761 9.14218C9.34761 9.14218 9.34761 9.14218 9.34761 9.14218C9.34761 9.14218 9.34761 9.14218 9.34761 9.14218C9.34761 9.14218 9.34761 9.14218 9.34761 9.14218C9.3476 9.14218 9.3476 9.14218 9.3476 9.14218C9.3476 9.14218 9.3476 9.14218 9.3476 9.14218C9.3476 9.14218 9.3476 9.14218 9.3476 9.14218C9.3476 9.14218 9.3476 9.14218 9.3476 9.14218C9.3476 9.14218 9.3476 9.14218 9.34759 9.14218C9.34759 9.14218 9.34759 9.14218 9.34759 9.14218C9.34759 9.14218 9.34759 9.14218 9.34759 9.14218C9.34759 9.14218 9.34759 9.14218 9.34759 9.14218C9.34759 9.14218 9.34759 9.14218 9.34759 9.14218C9.34758 9.14218 9.34758 9.14218 9.34758 9.14218C9.34758 9.14218 9.34758 9.14218 9.34758 9.14218C9.34758 9.14218 9.34758 9.14218 9.34758 9.14218C9.34758 9.14218 9.34758 9.14218 9.34758 9.14218C9.34758 9.14218 9.34758 9.14218 9.34757 9.14218C9.34757 9.14218 9.34757 9.14218 9.34757 9.14218C9.34757 9.14218 9.34757 9.14218 9.34757 9.14218C9.34757 9.14218 9.34757 9.14218 9.34757 9.14218C9.34757 9.14218 9.34757 9.14218 9.34757 9.14218C9.34757 9.14218 9.34756 9.14218 9.34756 9.14218C9.34756 9.14218 9.34756 9.14218 9.34756 9.14218C9.34756 9.14218 9.34756 9.14218 9.34756 9.14218C9.34756 9.14218 9.34756 9.14218 9.34756 9.14218C9.34756 9.14218 9.34756 9.14218 9.34756 9.14218C9.34755 9.14218 9.34755 9.14218 9.34755 9.14218C9.34755 9.14218 9.34755 9.14218 9.34755 9.14218C9.34755 9.14218 9.34755 9.14218 9.34755 9.14218C9.34755 9.14218 9.34755 9.14218 9.34755 9.14218C9.34755 9.14218 9.34755 9.14218 9.34754 9.14218C9.34754 9.14218 9.34754 9.14218 9.34754 9.14218C9.34754 9.14218 9.34754 9.14218 9.34754 9.14218C9.34754 9.14218 9.34754 9.14218 9.34754 9.14218C9.34754 9.14218 9.34754 9.14218 9.34754 9.14218C9.34753 9.14218 9.34753 9.14218 9.34753 9.14218C9.34753 9.14218 9.34753 9.14218 9.34753 9.14218C9.34753 9.14218 9.34753 9.14218 9.34753 9.14218C9.34753 9.14218 9.34753 9.14218 9.34753 9.14218C9.34753 9.14218 9.34753 9.14218 9.34752 9.14218C9.34752 9.14218 9.34752 9.14218 9.34752 9.14218C9.34752 9.14218 9.34752 9.14218 9.34752 9.14218C9.34752 9.14218 9.34752 9.14218 9.34752 9.14218C9.34752 9.14218 9.34752 9.14218 9.34752 9.14218C9.34752 9.14218 9.34751 9.14218 9.34751 9.14218C9.34751 9.14218 9.34751 9.14218 9.34751 9.14218C9.34751 9.14218 9.34751 9.14218 9.34751 9.14218C9.34751 9.14218 9.34751 9.14218 9.34751 9.14218C9.34751 9.14218 9.34751 9.14218 9.34751 9.14218C9.3475 9.14218 9.3475 9.14218 9.3475 9.14218C9.3475 9.14218 9.3475 9.14218 9.3475 9.14218C9.3475 9.14218 9.3475 9.14218 9.3475 9.14218C9.3475 9.14218 9.3475 9.14218 9.3475 9.14218C9.3475 9.14218 9.3475 9.14218 9.34749 9.14218C9.34749 9.14218 9.34749 9.14218 9.34749 9.14218C9.34749 9.14218 9.34749 9.14218 9.34749 9.14218C9.34749 9.14218 9.34749 9.14218 9.34749 9.14218C9.34749 9.14218 9.34749 9.14218 9.34749 9.14218C9.34748 9.14218 9.34748 9.14218 9.34748 9.14218C9.34748 9.14218 9.34748 9.14218 9.34748 9.14218C9.34748 9.14218 9.34748 9.14218 9.34748 9.14218C9.34748 9.14218 9.34748 9.14218 9.34748 9.14218C9.34748 9.14218 9.34748 9.14218 9.34747 9.14218C9.34747 9.14218 9.34747 9.14218 9.34747 9.14218C9.34747 9.14218 9.34747 9.14218 9.34747 9.14218C9.34747 9.14218 9.34747 9.14218 9.34747 9.14218C9.34747 9.14218 9.34747 9.14218 9.34747 9.14218C9.34747 9.14218 9.34746 9.14218 9.34746 9.14218C9.34746 9.14218 9.34746 9.14218 9.34746 9.14218C9.34746 9.14218 9.34746 9.14218 9.34746 9.14218C9.34746 9.14218 9.34746 9.14218 9.34746 9.14218C9.34746 9.14218 9.34746 9.14218 9.34746 9.14218C9.34745 9.14218 9.34745 9.14218 9.34745 9.14218C9.34745 9.14218 9.34745 9.14218 9.34745 9.14218C9.34745 9.14218 9.34745 9.14218 9.34745 9.14218C9.34745 9.14218 9.34745 9.14218 9.34745 9.14218C9.34745 9.14218 9.34745 9.14218 9.34744 9.14218C9.34744 9.14218 9.34744 9.14218 9.34744 9.14218C9.34744 9.14218 9.34744 9.14218 9.34744 9.14218C9.34744 9.14218 9.34744 9.14218 9.34744 9.14218C9.34744 9.14218 9.34744 9.14218 9.34744 9.14218C9.34743 9.14218 9.34743 9.14218 9.34743 9.14218C9.34743 9.14218 9.34743 9.14218 9.34743 9.14218C9.34743 9.14218 9.34743 9.14218 9.34743 9.14218C9.34743 9.14218 9.34743 9.14218 9.34743 9.14218C9.34743 9.14218 9.34743 9.14218 9.34742 9.14218C9.34742 9.14218 9.34742 9.14218 9.34742 9.14218C9.34742 9.14218 9.34742 9.14218 9.34742 9.14218C9.34742 9.14218 9.34742 9.14218 9.34742 9.14218C9.34742 9.14218 9.34742 9.14218 9.34742 9.14218C9.34742 9.14218 9.34741 9.14218 9.34741 9.14218C9.34741 9.14218 9.34741 9.14218 9.34741 9.14218C9.34741 9.14218 9.34741 9.14218 9.34741 9.14218C9.34741 9.14218 9.34741 9.14218 9.34741 9.14218C9.34741 9.14218 9.34741 9.14218 9.34741 9.14218C9.3474 9.14218 9.3474 9.14218 9.3474 9.14218C9.3474 9.14218 9.3474 9.14218 9.3474 9.14218C9.3474 9.14218 9.3474 9.14218 9.3474 9.14218C9.3474 9.14218 9.3474 9.14218 9.3474 9.14218C9.3474 9.14218 9.3474 9.14218 9.34739 9.14218C9.34739 9.14218 9.34739 9.14218 9.34739 9.14218C9.34739 9.14218 9.34739 9.14218 9.34739 9.14218C9.34739 9.14218 9.34739 9.14218 9.34739 9.14218C9.34739 9.14218 9.34739 9.14218 9.34739 9.14218C9.34738 9.14218 9.34738 9.14218 9.34738 9.14218C9.34738 9.14218 9.34738 9.14218 9.34738 9.14218C9.34738 9.14218 9.34738 9.14218 9.34738 9.14218C9.34738 9.14218 9.34738 9.14218 9.34738 9.14218C9.34738 9.14218 9.34738 9.14218 9.34737 9.14218C9.34737 9.14218 9.34737 9.14218 9.34737 9.14218C9.34737 9.14218 9.34737 9.14218 9.34737 9.14218C9.34737 9.14218 9.34737 9.14218 9.34737 9.14218C9.34737 9.14218 9.34737 9.14218 9.34737 9.14218C9.34737 9.14218 9.34736 9.14218 9.34736 9.14218C9.34736 9.14218 9.34736 9.14218 9.34736 9.14218C9.34736 9.14218 9.34736 9.14218 9.34736 9.14218C9.34736 9.14218 9.34736 9.14218 9.34736 9.14218C9.34736 9.14218 9.34736 9.14218 9.34736 9.14218C9.34735 9.14218 9.34735 9.14218 9.34735 9.14218C9.34735 9.14218 9.34735 9.14218 9.34735 9.14218C9.34735 9.14218 9.34735 9.14218 9.34735 9.14218C9.34735 9.14218 9.34735 9.14218 9.34735 9.14218C9.34735 9.14218 9.34735 9.14218 9.34734 9.14218C9.34734 9.14218 9.34734 9.14218 9.34734 9.14218C9.34734 9.14218 9.34734 9.14218 9.34734 9.14218C9.34734 9.14218 9.34734 9.14218 9.34734 9.14218C9.34734 9.14218 9.34734 9.14218 9.34734 9.14218C9.34733 9.14218 9.34733 9.14218 9.34733 9.14218C9.34733 9.14218 9.34733 9.14218 9.34733 9.14218C9.34733 9.14218 9.34733 9.14218 9.34733 9.14218C9.34733 9.14218 9.34733 9.14218 9.34733 9.14218C9.34733 9.14218 9.34733 9.14218 9.34732 9.14218C9.34732 9.14218 9.34732 9.14218 9.34732 9.14218C9.34732 9.14218 9.34732 9.14218 9.34732 9.14218C9.34732 9.14218 9.34732 9.14218 9.34732 9.14218C9.34732 9.14218 9.34732 9.14218 9.34732 9.14218C9.34732 9.14218 9.34731 9.14218 9.34731 9.14218C9.34731 9.14218 9.34731 9.14218 9.34731 9.14218C9.34731 9.14218 9.34731 9.14218 9.34731 9.14218C9.34731 9.14218 9.34731 9.14218 9.34731 9.14218C9.34731 9.14218 9.34731 9.14218 9.34731 9.14218C9.3473 9.14218 9.3473 9.14218 9.3473 9.14218C9.3473 9.14218 9.3473 9.14218 9.3473 9.14218C9.3473 9.14218 9.3473 9.14218 9.3473 9.14218C9.3473 9.14218 9.3473 9.14218 9.3473 9.14218C9.3473 9.14218 9.3473 9.14218 9.34729 9.14218C9.34729 9.14218 9.34729 9.14218 9.34729 9.14218C9.34729 9.14218 9.34729 9.14218 9.34729 9.14218C9.34729 9.14218 9.34729 9.14218 9.34729 9.14218C9.34729 9.14218 9.34729 9.14218 9.34729 9.14218C9.34728 9.14218 9.34728 9.14218 9.34728 9.14218C9.34728 9.14218 9.34728 9.14218 9.34728 9.14218C9.34728 9.14218 9.34728 9.14218 9.34728 9.14218C9.34728 9.14218 9.34728 9.14218 9.34728 9.14218C9.34728 9.14218 9.34728 9.14218 9.34727 9.14218C9.34727 9.14218 9.34727 9.14218 9.34727 9.14218C9.34727 9.14218 9.34727 9.14218 9.34727 9.14218C9.34727 9.14218 9.34727 9.14218 9.34727 9.14218C9.34727 9.14218 9.34727 9.14218 9.34727 9.14218C9.34727 9.14218 9.34726 9.14218 9.34726 9.14218C9.34726 9.14218 9.34726 9.14218 9.34726 9.14218C9.34726 9.14218 9.34726 9.14218 9.34726 9.14218C9.34726 9.14218 9.34726 9.14218 9.34726 9.14218C9.34726 9.14218 9.34726 9.14218 9.34726 9.14218C9.34725 9.14218 9.34725 9.14218 9.34725 9.14218C9.34725 9.14218 9.34725 9.14218 9.34725 9.14218C9.34725 9.14218 9.34725 9.14218 9.34725 9.14218C9.34725 9.14218 9.34725 9.14218 9.34725 9.14218C9.34725 9.14218 9.34725 9.14218 9.34724 9.14218C9.34724 9.14218 9.34724 9.14218 9.34724 9.14218C9.34724 9.14218 9.34724 9.14218 9.34724 9.14218C9.34724 9.14218 9.34724 9.14218 9.34724 9.14218C9.34724 9.14218 9.34724 9.14218 9.34724 9.14218C9.34723 9.14218 9.34723 9.14218 9.34723 9.14218C9.34723 9.14218 9.34723 9.14218 9.34723 9.14218C9.34723 9.14218 9.34723 9.14218 9.34723 9.14218C9.34723 9.14218 9.34723 9.14218 9.34723 9.14218C9.34723 9.14218 9.34723 9.14218 9.34722 9.14218C9.34722 9.14218 9.34722 9.14218 9.34722 9.14218C9.34722 9.14218 9.34722 9.14218 9.34722 9.14218C9.34722 9.14218 9.34722 9.14218 9.34722 9.14218C9.34722 9.14218 9.34722 9.14218 9.34722 9.14218C9.34722 9.14218 9.34721 9.14218 9.34721 9.14218C9.34721 9.14218 9.34721 9.14218 9.34721 9.14218C9.34721 9.14218 9.34721 9.14218 9.34721 9.14218C9.34721 9.14218 9.34721 9.14218 9.34721 9.14218C9.34721 9.14218 9.34721 9.14218 9.34721 9.14218C9.3472 9.14218 9.3472 9.14218 9.3472 9.14218C9.3472 9.14218 9.3472 9.14218 9.3472 9.14218C9.3472 9.14218 9.3472 9.14218 9.3472 9.14218C9.3472 9.14218 9.3472 9.14218 9.3472 9.14218C9.3472 9.14218 9.3472 9.14218 9.34719 9.14218C9.34719 9.14218 9.34719 9.14218 9.34719 9.14218C9.34719 9.14218 9.34719 9.14218 9.34719 9.14218C9.34719 9.14218 9.34719 9.14218 9.34719 9.14218C9.34719 9.14218 9.34719 9.14218 9.34719 9.14218C9.34718 9.14218 9.34718 9.14218 9.34718 9.14218C9.34718 9.14218 9.34718 9.14218 9.34718 9.14218C9.34718 9.14218 9.34718 9.14218 9.34718 9.14218C9.34718 9.14218 9.34718 9.14218 9.34718 9.14218C9.34718 9.14218 9.34718 9.14218 9.34717 9.14218C9.34717 9.14218 9.34717 9.14218 9.34717 9.14218C9.34717 9.14218 9.34717 9.14218 9.34717 9.14218C9.34717 9.14218 9.34717 9.14218 9.34717 9.14218C9.34717 9.14218 9.34717 9.14218 9.34717 9.14218C9.34717 9.14218 9.34716 9.14218 9.34716 9.14218C9.34716 9.14218 9.34716 9.14218 9.34716 9.14218C9.34716 9.14218 9.34716 9.14218 9.34716 9.14218C9.34716 9.14218 9.34716 9.14218 9.34716 9.14218C9.34716 9.14218 9.34716 9.14218 9.34716 9.14218C9.34715 9.14218 9.34715 9.14218 9.34715 9.14218C9.34715 9.14218 9.34715 9.14218 9.34715 9.14218C9.34715 9.14218 9.34715 9.14218 9.34715 9.14218C9.34715 9.14218 9.34715 9.14218 9.34715 9.14218C9.34715 9.14218 9.34715 9.14218 9.34714 9.14218C9.34714 9.14218 9.34714 9.14218 9.34714 9.14218C9.34714 9.14218 9.34714 9.14218 9.34714 9.14218C9.34714 9.14218 9.34714 9.14218 9.34714 9.14218C9.34714 9.14218 9.34714 9.14218 9.34714 9.14218C9.34713 9.14218 9.34713 9.14218 9.34713 9.14218C9.34713 9.14218 9.34713 9.14218 9.34713 9.14218C9.34713 9.14218 9.34713 9.14218 9.34713 9.14218C9.34713 9.14218 9.34713 9.14218 9.34713 9.14218C9.34713 9.14218 9.34713 9.14218 9.34712 9.14218C9.34712 9.14218 9.34712 9.14218 9.34712 9.14218C9.34712 9.14218 9.34712 9.14218 9.34712 9.14218C9.34712 9.14218 9.34712 9.14218 9.34712 9.14218C9.34712 9.14218 9.34712 9.14218 9.34712 9.14218C9.34712 9.14218 9.34711 9.14218 9.34711 9.14218C9.34711 9.14218 9.34711 9.14218 9.34711 9.14218C9.34711 9.14218 9.34711 9.14218 9.34711 9.14218V9.44218ZM9.36026 9.14267C8.99628 9.11337 8.64623 8.96885 8.38452 8.71385L8.17516 8.92872C8.49236 9.23779 8.91047 9.40744 9.33619 9.4417L9.36026 9.14267ZM8.38445 8.92879C8.30398 8.96933 8.2013 8.94908 8.18862 8.94036C8.18438 8.93699 8.17826 8.93166 8.1763 8.92982C8.17328 8.92693 8.17104 8.92454 8.17071 8.92419C8.16994 8.92337 8.16936 8.92273 8.16911 8.92246C8.16881 8.92214 8.16859 8.92189 8.16849 8.92177C8.16825 8.9215 8.1681 8.92134 8.16867 8.92198C8.16949 8.9229 8.17092 8.92453 8.17281 8.92663C8.17661 8.93086 8.18203 8.9368 8.18904 8.9442C8.20304 8.95899 8.22322 8.97941 8.2494 9.00361C8.30168 9.05191 8.37828 9.11562 8.47782 9.17947C8.6769 9.30717 8.97065 9.43719 9.34512 9.44217L9.3491 9.1422C9.0441 9.13814 8.8044 9.03254 8.6398 8.92696C8.55751 8.87417 8.49472 8.82183 8.45301 8.78328C8.4322 8.76405 8.41675 8.74836 8.40684 8.73789C8.40189 8.73268 8.39829 8.72872 8.39604 8.72621C8.3949 8.72494 8.39406 8.72399 8.39335 8.72319C8.39315 8.72296 8.39243 8.72214 8.3918 8.72144C8.39163 8.72125 8.39052 8.72001 8.38913 8.71854C8.38875 8.71813 8.38647 8.7157 8.38343 8.7128C8.38145 8.71094 8.37532 8.7056 8.37107 8.70222C8.35839 8.6935 8.25571 8.67324 8.17523 8.71379L8.38445 8.92879Z" fill="#EC6426" mask="url(#path-15-inside-6_2_116)"/>
<mask id="path-17-inside-7_2_116" fill="white">
<path d="M1.11328 1.82397L5.90262 6.5H5.90299L1.11328 1.82397Z"/>
</mask>
<path d="M1.11328 1.82397L5.90262 6.5H5.90299L1.11328 1.82397Z" fill="#EC6426"/>
<path d="M1.11328 1.82397L1.21807 1.71664L1.00849 1.9313L1.11328 1.82397ZM5.90262 6.5L5.79783 6.60733L5.84153 6.65H5.90262V6.5ZM5.90299 6.5V6.65H6.27136L6.00777 6.39267L5.90299 6.5ZM1.00849 1.9313L5.79783 6.60733L6.00741 6.39267L1.21807 1.71665L1.00849 1.9313ZM5.90262 6.65H5.90299V6.35H5.90262V6.65ZM6.00777 6.39267L1.21807 1.71664L1.0085 1.93131L5.7982 6.60733L6.00777 6.39267Z" fill="#EC6426" mask="url(#path-17-inside-7_2_116)"/>
<mask id="path-19-inside-8_2_116" fill="white">
<path d="M17.7847 1.92463C17.7876 1.9219 17.79 1.91957 17.7925 1.91724L17.7847 1.92463Z"/>
</mask>
<path d="M17.7847 1.92463C17.7876 1.9219 17.79 1.91957 17.7925 1.91724L17.7847 1.92463Z" fill="#EC6426"/>
<path d="M17.7847 1.92463L17.6819 1.81538L17.8874 2.03388L17.7847 1.92463ZM17.7925 1.91724L17.8953 2.02649L17.6897 1.80799L17.7925 1.91724ZM17.8874 2.03388C17.8889 2.03252 17.8902 2.03125 17.8915 2.03004C17.8928 2.02882 17.8941 2.02765 17.8953 2.02649L17.6897 1.80799C17.6885 1.80915 17.6873 1.81032 17.686 1.81153C17.6847 1.81275 17.6833 1.81402 17.6819 1.81538L17.8874 2.03388ZM17.6897 1.80799L17.6819 1.81538L17.8874 2.03388L17.8953 2.02649L17.6897 1.80799Z" fill="#EC6426" mask="url(#path-19-inside-8_2_116)"/>
<mask id="path-21-inside-9_2_116" fill="white">
<path d="M10.5706 8.94943C10.5713 8.94871 10.5725 8.94799 10.5732 8.94727C10.3361 9.12782 10.0537 9.23905 9.76088 9.28021C10.1516 9.24663 10.3576 9.14371 10.5706 8.94943Z"/>
</mask>
<path d="M10.5706 8.94943C10.5713 8.94871 10.5725 8.94799 10.5732 8.94727C10.3361 9.12782 10.0537 9.23905 9.76088 9.28021C10.1516 9.24663 10.3576 9.14371 10.5706 8.94943Z" fill="#EC6426"/>
<path d="M10.5706 8.94943L10.6717 9.06032L10.6752 9.05693L10.5706 8.94943ZM10.5732 8.94727L10.6778 9.05477L10.4823 8.82792L10.5732 8.94727ZM9.76088 9.28021L9.74 9.13168L9.77372 9.42966L9.76088 9.28021ZM10.6752 9.05693C10.6712 9.06086 10.6678 9.06367 10.6663 9.06492C10.6648 9.06614 10.6635 9.06712 10.664 9.06672C10.6641 9.06668 10.6646 9.06631 10.6651 9.06588C10.6657 9.06544 10.6666 9.06472 10.6677 9.06384C10.6696 9.06222 10.6734 9.05906 10.6778 9.05477L10.4686 8.83976C10.4726 8.83583 10.476 8.83303 10.4775 8.83178C10.479 8.83056 10.4803 8.82958 10.4798 8.82998C10.4797 8.83002 10.4792 8.83039 10.4787 8.83081C10.4781 8.83126 10.4772 8.83198 10.4762 8.83286C10.4742 8.83447 10.4704 8.83764 10.466 8.84193L10.6752 9.05693ZM10.4823 8.82792C10.2672 8.99171 10.0094 9.0938 9.74 9.13168L9.78177 9.42875C10.098 9.3843 10.4049 9.26393 10.6641 9.06661L10.4823 8.82792ZM9.77372 9.42966C9.97978 9.41195 10.1456 9.37526 10.2913 9.31303C10.4379 9.25045 10.5566 9.16527 10.6717 9.06026L10.4695 8.83861C10.3717 8.92787 10.2809 8.99129 10.1735 9.03713C10.0653 9.08333 9.93274 9.11489 9.74804 9.13077L9.77372 9.42966Z" fill="#EC6426" mask="url(#path-21-inside-9_2_116)"/>
<mask id="path-23-inside-10_2_116" fill="white">
<path d="M6.68859 7.26733L8.28021 8.82083L6.68859 7.26733Z"/>
</mask>
<path d="M6.68859 7.26733L8.28021 8.82083L6.68859 7.26733Z" fill="#EC6426"/>
<path d="M6.58382 7.37468L8.17544 8.92818L8.38499 8.71349L6.79336 7.15999L6.58382 7.37468ZM8.38499 8.71349L6.79336 7.15999L6.58382 7.37468L8.17544 8.92818L8.38499 8.71349Z" fill="#EC6426" mask="url(#path-23-inside-10_2_116)"/>
<path d="M9.01602 8.10961C9.14206 8.23268 9.32392 8.29039 9.49997 8.29034C9.67602 8.29029 9.85777 8.23249 9.98361 8.10961L17.0709 1.19076L17.7147 1.88742C17.0776 2.50948 10.8507 8.5877 10.5253 8.88928C10.3003 9.05978 10.032 9.16562 9.75283 9.2052C9.63826 9.21487 9.50682 9.21877 9.35251 9.21672C8.97355 9.18572 8.60754 9.03533 8.33299 8.76713L8.33297 8.76711L6.74136 7.21362L6.74135 7.21361L5.95538 6.44626L5.90706 6.49575L5.95538 6.44626L1.22258 1.82578L1.92457 1.18633L9.01602 8.10961ZM9.01602 8.10961L9.06842 8.05595M9.01602 8.10961L9.01603 8.10962L9.06842 8.05595M9.06842 8.05595C9.28625 8.26865 9.71375 8.26828 9.93121 8.05595H9.06842Z" fill="#EC6426" stroke="#EC6426" stroke-width="0.15"/>
</g>
<defs>
<clipPath id="clip0_2_116">
<rect width="19" height="13" fill="white"/>
</clipPath>
</defs>
</svg>
